<?xml version="1.0" encoding="UTF-8"?>
<!DOCTYPE svg PUBLIC "-//W3C//DTD SVG 1.1//EN" "http://www.w3.org/Graphics/SVG/1.1/DTD/svg11.dtd">
<svg xmlns="http://www.w3.org/2000/svg" version="1.1" width="270px" height="270px" style="shape-rendering:geometricPrecision; text-rendering:geometricPrecision; image-rendering:optimizeQuality; fill-rule:evenodd; clip-rule:evenodd" xmlns:xlink="http://www.w3.org/1999/xlink">
<g><path style="opacity:1" fill="#52cbbf" d="M 149.5,49.5 C 149.5,49.8333 149.5,50.1667 149.5,50.5C 140.139,50.3129 130.805,50.6462 121.5,51.5C 122.263,50.7321 123.263,50.2321 124.5,50C 132.827,49.5003 141.16,49.3336 149.5,49.5 Z"/></g>
<g><path style="opacity:1" fill="#55ecd0" d="M 149.5,50.5 C 158.764,51.0782 167.431,53.4116 175.5,57.5C 170.233,56.1836 164.9,55.1836 159.5,54.5C 159.5,55.5 159.5,56.5 159.5,57.5C 166.266,59.1435 172.932,61.3102 179.5,64C 180.305,65.1127 180.972,66.2794 181.5,67.5C 163.971,58.1367 145.305,54.8034 125.5,57.5C 126.091,56.8485 126.757,56.1818 127.5,55.5C 136.915,54.9484 146.248,54.1151 155.5,53C 149.014,52.3194 142.514,51.8194 136,51.5C 128.167,52.2225 120.334,52.8892 112.5,53.5C 115.171,51.8819 118.171,51.2153 121.5,51.5C 130.805,50.6462 140.139,50.3129 149.5,50.5 Z"/></g>
<g><path style="opacity:1" fill="#45f9cb" d="M 125.5,57.5 C 122.482,57.7038 119.482,58.0371 116.5,58.5C 112.947,58.8439 109.447,59.5106 106,60.5C 104.398,59.2413 104.564,57.908 106.5,56.5C 108.919,56.0863 110.919,55.0863 112.5,53.5C 120.334,52.8892 128.167,52.2225 136,51.5C 142.514,51.8194 149.014,52.3194 155.5,53C 146.248,54.1151 136.915,54.9484 127.5,55.5C 126.757,56.1818 126.091,56.8485 125.5,57.5 Z"/></g>
<g><path style="opacity:1" fill="#40f8ca" d="M 175.5,57.5 C 175.833,57.5 176.167,57.5 176.5,57.5C 179.134,60.3732 182.3,62.7065 186,64.5C 186.167,64.8333 186.333,65.1667 186.5,65.5C 184.861,66.3219 183.195,66.9886 181.5,67.5C 180.972,66.2794 180.305,65.1127 179.5,64C 172.932,61.3102 166.266,59.1435 159.5,57.5C 159.5,56.5 159.5,55.5 159.5,54.5C 164.9,55.1836 170.233,56.1836 175.5,57.5 Z"/></g>
<g><path style="opacity:0.914" fill="#2e5f65" d="M 153.5,48.5 C 152.432,49.4345 151.099,49.7678 149.5,49.5C 141.16,49.3336 132.827,49.5003 124.5,50C 123.263,50.2321 122.263,50.7321 121.5,51.5C 118.171,51.2153 115.171,51.8819 112.5,53.5C 99.3255,56.7488 87.9922,63.0821 78.5,72.5C 75.2689,74.2199 72.4356,76.5532 70,79.5C 64.4545,86.2077 59.9545,93.5411 56.5,101.5C 53.2659,107.705 51.0992,114.371 50,121.5C 49.0581,134.913 49.5581,148.247 51.5,161.5C 51.5654,161.938 51.3988,162.272 51,162.5C 50.7216,161.584 50.2216,160.918 49.5,160.5C 40.2282,114.89 55.5615,80.3897 95.5,57C 113.991,48.3347 133.324,45.5014 153.5,48.5 Z"/></g>
<g><path style="opacity:1" fill="#175062" d="M 181.5,67.5 C 183.167,68.8333 184.833,70.1667 186.5,71.5C 185.833,71.5 185.167,71.5 184.5,71.5C 181.699,70.2653 179.032,68.7653 176.5,67C 174.559,66.2571 172.726,66.4238 171,67.5C 169.513,66.7471 169.346,65.9138 170.5,65C 167.488,62.4426 164.155,61.9426 160.5,63.5C 159.713,62.7579 159.047,61.9246 158.5,61C 146.609,58.6308 134.609,57.9641 122.5,59C 121.377,60.0437 120.044,60.7104 118.5,61C 121.553,61.1786 124.553,61.6786 127.5,62.5C 125.257,63.4742 122.924,63.8076 120.5,63.5C 115.752,63.2748 111.085,63.7748 106.5,65C 105.5,66 104.5,67 103.5,68C 98.2938,69.5538 93.2938,71.5538 88.5,74C 84.0536,78.2922 79.5536,82.4588 75,86.5C 72.4913,89.2047 71.9913,92.2047 73.5,95.5C 73.5,96.1667 73.5,96.8333 73.5,97.5C 69.9865,94.5251 68.1532,95.5251 68,100.5C 66.9887,101.337 65.8221,101.67 64.5,101.5C 67.0654,95.3672 70.3988,89.7006 74.5,84.5C 86.3211,72.2589 100.321,63.5923 116.5,58.5C 119.482,58.0371 122.482,57.7038 125.5,57.5C 145.305,54.8034 163.971,58.1367 181.5,67.5 Z"/></g>
<g><path style="opacity:1" fill="#50efd1" d="M 112.5,53.5 C 110.919,55.0863 108.919,56.0863 106.5,56.5C 104.564,57.908 104.398,59.2413 106,60.5C 109.447,59.5106 112.947,58.8439 116.5,58.5C 100.321,63.5923 86.3211,72.2589 74.5,84.5C 74.3022,81.2297 75.8022,79.2297 79,78.5C 80.341,76.7564 81.5077,74.9231 82.5,73C 82.3333,72.1667 82.1667,71.3333 82,70.5C 81.1841,71.8228 80.0174,72.4894 78.5,72.5C 87.9922,63.0821 99.3255,56.7488 112.5,53.5 Z"/></g>
<g><path style="opacity:1" fill="#2c516e" d="M 184.5,71.5 C 185.412,72.7382 185.579,74.0715 185,75.5C 181.403,74.0772 177.903,72.4105 174.5,70.5C 167.991,70.0841 163.325,72.7507 160.5,78.5C 162.451,90.317 163.118,102.317 162.5,114.5C 161.5,114.5 160.5,114.5 159.5,114.5C 159.827,104.985 159.494,95.6517 158.5,86.5C 158.5,85.8333 158.167,85.5 157.5,85.5C 157.5,85.1667 157.5,84.8333 157.5,84.5C 157.5,84.1667 157.5,83.8333 157.5,83.5C 160.125,82.5343 160.125,81.5343 157.5,80.5C 158.752,78.9991 159.752,77.3325 160.5,75.5C 159.009,72.602 158.343,69.7687 158.5,67C 148.211,65.6963 137.878,65.1963 127.5,65.5C 125.306,64.2335 122.972,64.2335 120.5,65.5C 119.537,65.0302 119.537,64.3635 120.5,63.5C 122.924,63.8076 125.257,63.4742 127.5,62.5C 124.553,61.6786 121.553,61.1786 118.5,61C 120.044,60.7104 121.377,60.0437 122.5,59C 134.609,57.9641 146.609,58.6308 158.5,61C 159.047,61.9246 159.713,62.7579 160.5,63.5C 164.155,61.9426 167.488,62.4426 170.5,65C 169.346,65.9138 169.513,66.7471 171,67.5C 172.726,66.4238 174.559,66.2571 176.5,67C 179.032,68.7653 181.699,70.2653 184.5,71.5 Z"/></g>
<g><path style="opacity:1" fill="#2f516f" d="M 120.5,63.5 C 119.537,64.3635 119.537,65.0302 120.5,65.5C 122.972,64.2335 125.306,64.2335 127.5,65.5C 124.058,66.7479 120.392,67.5812 116.5,68C 113.815,68.5036 111.481,69.6703 109.5,71.5C 108.094,70.3318 106.928,70.6652 106,72.5C 105.667,72.1667 105.333,71.8333 105,71.5C 102.404,73.0201 99.5706,73.8534 96.5,74C 95.5939,75.6995 95.2606,77.5328 95.5,79.5C 93.6997,80.8948 93.3664,82.5615 94.5,84.5C 95.7362,83.7542 97.0695,83.4208 98.5,83.5C 98.33,84.8221 98.6634,85.9887 99.5,87C 97.8659,87.4935 96.1992,87.6602 94.5,87.5C 88.8226,87.6233 86.3226,90.6233 87,96.5C 84.0505,93.8819 82.8838,90.5486 83.5,86.5C 82.1667,86.5 80.8333,86.5 79.5,86.5C 80.1667,88.5 80.8333,90.5 81.5,92.5C 78.8333,93.5 76.1667,94.5 73.5,95.5C 71.9913,92.2047 72.4913,89.2047 75,86.5C 79.5536,82.4588 84.0536,78.2922 88.5,74C 93.2938,71.5538 98.2938,69.5538 103.5,68C 104.5,67 105.5,66 106.5,65C 111.085,63.7748 115.752,63.2748 120.5,63.5 Z"/></g>
<g><path style="opacity:1" fill="#215065" d="M 184.5,71.5 C 185.167,71.5 185.833,71.5 186.5,71.5C 196.327,77.4344 204.161,85.4344 210,95.5C 211.786,98.7365 213.286,102.07 214.5,105.5C 214.873,108.574 215.539,111.574 216.5,114.5C 214.224,109.597 211.224,105.263 207.5,101.5C 206.209,101.737 205.209,101.404 204.5,100.5C 205.139,99.9032 205.472,99.0698 205.5,98C 204.622,96.1999 203.955,94.3666 203.5,92.5C 198.333,93.5081 196.666,91.6748 198.5,87C 195.828,87.5829 193.828,86.4162 192.5,83.5C 193.326,82.549 193.492,81.549 193,80.5C 191.883,80.6651 190.716,80.9984 189.5,81.5C 188.396,80.3687 188.729,79.5354 190.5,79C 189.584,78.6258 188.75,78.1258 188,77.5C 185.876,78.2272 183.709,78.8938 181.5,79.5C 180.5,81.5 179.5,83.5 178.5,85.5C 178.453,87.0004 179.119,88.0004 180.5,88.5C 185.487,82.7193 188.154,83.7193 188.5,91.5C 188.167,91.5 187.833,91.5 187.5,91.5C 186.866,90.0532 185.699,89.3866 184,89.5C 182.301,89.3866 181.134,90.0532 180.5,91.5C 179.611,119.336 178.778,147.336 178,175.5C 177.831,159.328 177.331,143.328 176.5,127.5C 176.833,109.821 176.5,92.1541 175.5,74.5C 174.583,73.8728 173.583,73.5394 172.5,73.5C 170.473,73.3379 168.473,73.5045 166.5,74C 165.177,74.8159 164.511,75.9826 164.5,77.5C 163.505,89.989 163.171,102.656 163.5,115.5C 161.833,115.5 160.167,115.5 158.5,115.5C 158.5,105.833 158.5,96.1667 158.5,86.5C 159.494,95.6517 159.827,104.985 159.5,114.5C 160.5,114.5 161.5,114.5 162.5,114.5C 163.118,102.317 162.451,90.317 160.5,78.5C 163.325,72.7507 167.991,70.0841 174.5,70.5C 177.903,72.4105 181.403,74.0772 185,75.5C 185.579,74.0715 185.412,72.7382 184.5,71.5 Z"/></g>
<g><path style="opacity:1" fill="#2d5d74" d="M 110.5,73.5 C 111.012,76.8477 112.845,79.1811 116,80.5C 118.605,79.1857 121.105,79.1857 123.5,80.5C 122.081,81.4511 120.415,81.7845 118.5,81.5C 118.263,82.791 118.596,83.791 119.5,84.5C 119.977,92.3909 116.644,94.5576 109.5,91C 110.167,88.3333 110.833,85.6667 111.5,83C 110.874,82.2496 110.374,81.4162 110,80.5C 108.376,82.1581 106.709,83.8248 105,85.5C 104.023,88.259 104.856,90.259 107.5,91.5C 108.189,93.444 108.689,95.444 109,97.5C 111.071,98.1029 112.238,99.4362 112.5,101.5C 112.167,101.5 111.833,101.5 111.5,101.5C 110.713,99.8958 109.38,99.2291 107.5,99.5C 107.708,97.0799 107.374,94.7466 106.5,92.5C 104.833,91.3336 103.166,91.3336 101.5,92.5C 101.029,91.0992 100.362,89.7658 99.5,88.5C 97.8716,89.5353 96.205,89.5353 94.5,88.5C 94.5,88.1667 94.5,87.8333 94.5,87.5C 96.1992,87.6602 97.8659,87.4935 99.5,87C 98.6634,85.9887 98.33,84.8221 98.5,83.5C 97.0695,83.4208 95.7362,83.7542 94.5,84.5C 93.3664,82.5615 93.6997,80.8948 95.5,79.5C 98.3384,80.9455 101.338,81.4455 104.5,81C 106.211,79.8668 106.711,78.3668 106,76.5C 103.931,75.7362 101.764,75.2362 99.5,75C 103.086,73.8924 106.753,73.3924 110.5,73.5 Z"/></g>
<g><path style="opacity:0.843" fill="#30676a" d="M 153.5,48.5 C 190.433,54.9287 214.933,75.9287 227,111.5C 228.475,116.063 229.308,120.73 229.5,125.5C 228.833,132.5 228.167,139.5 227.5,146.5C 227.5,139.167 227.5,131.833 227.5,124.5C 221.82,93.4405 204.82,71.1072 176.5,57.5C 176.167,57.5 175.833,57.5 175.5,57.5C 167.431,53.4116 158.764,51.0782 149.5,50.5C 149.5,50.1667 149.5,49.8333 149.5,49.5C 151.099,49.7678 152.432,49.4345 153.5,48.5 Z"/></g>
<g><path style="opacity:1" fill="#365b78" d="M 127.5,65.5 C 137.878,65.1963 148.211,65.6963 158.5,67C 158.343,69.7687 159.009,72.602 160.5,75.5C 159.752,77.3325 158.752,78.9991 157.5,80.5C 160.125,81.5343 160.125,82.5343 157.5,83.5C 157.134,82.3054 156.301,81.6387 155,81.5C 153.415,82.0439 151.915,82.7106 150.5,83.5C 144.041,83.3797 137.541,83.3797 131,83.5C 129.956,84.6226 129.29,85.9559 129,87.5C 123.497,90.8571 121.331,89.1904 122.5,82.5C 120.821,82.2852 119.821,82.9519 119.5,84.5C 118.596,83.791 118.263,82.791 118.5,81.5C 120.415,81.7845 122.081,81.4511 123.5,80.5C 124.75,80.4226 125.583,79.756 126,78.5C 126.333,78.8333 126.667,79.1667 127,79.5C 135.908,77.7076 145.074,76.8743 154.5,77C 155.833,76.3333 157.167,75.6667 158.5,75C 157.5,74 156.5,73 155.5,72C 157.301,71.6827 157.634,71.016 156.5,70C 146.723,66.3627 136.723,65.696 126.5,68C 123.716,68.8005 121.383,70.3005 119.5,72.5C 116.254,73.3179 113.254,73.6512 110.5,73.5C 106.753,73.3924 103.086,73.8924 99.5,75C 101.764,75.2362 103.931,75.7362 106,76.5C 106.711,78.3668 106.211,79.8668 104.5,81C 101.338,81.4455 98.3384,80.9455 95.5,79.5C 95.2606,77.5328 95.5939,75.6995 96.5,74C 99.5706,73.8534 102.404,73.0201 105,71.5C 105.333,71.8333 105.667,72.1667 106,72.5C 106.928,70.6652 108.094,70.3318 109.5,71.5C 111.481,69.6703 113.815,68.5036 116.5,68C 120.392,67.5812 124.058,66.7479 127.5,65.5 Z"/></g>
<g><path style="opacity:1" fill="#3a5e7c" d="M 123.5,80.5 C 121.105,79.1857 118.605,79.1857 116,80.5C 112.845,79.1811 111.012,76.8477 110.5,73.5C 113.254,73.6512 116.254,73.3179 119.5,72.5C 121.383,70.3005 123.716,68.8005 126.5,68C 136.723,65.696 146.723,66.3627 156.5,70C 157.634,71.016 157.301,71.6827 155.5,72C 156.5,73 157.5,74 158.5,75C 157.167,75.6667 155.833,76.3333 154.5,77C 145.074,76.8743 135.908,77.7076 127,79.5C 126.667,79.1667 126.333,78.8333 126,78.5C 125.583,79.756 124.75,80.4226 123.5,80.5 Z"/></g>
<g><path style="opacity:1" fill="#325473" d="M 204.5,100.5 C 203.325,100.719 202.325,100.386 201.5,99.5C 201.023,98.069 200.357,96.7357 199.5,95.5C 197.184,97.4935 194.518,98.4935 191.5,98.5C 191.183,102.702 191.517,106.702 192.5,110.5C 192.5,111.167 192.833,111.5 193.5,111.5C 193.5,113.167 193.5,114.833 193.5,116.5C 192.069,116.881 191.236,117.881 191,119.5C 190.667,122.167 190.333,124.833 190,127.5C 189.793,115.455 189.293,103.455 188.5,91.5C 188.154,83.7193 185.487,82.7193 180.5,88.5C 179.119,88.0004 178.453,87.0004 178.5,85.5C 179.5,83.5 180.5,81.5 181.5,79.5C 183.709,78.8938 185.876,78.2272 188,77.5C 188.75,78.1258 189.584,78.6258 190.5,79C 188.729,79.5354 188.396,80.3687 189.5,81.5C 190.716,80.9984 191.883,80.6651 193,80.5C 193.492,81.549 193.326,82.549 192.5,83.5C 193.828,86.4162 195.828,87.5829 198.5,87C 196.666,91.6748 198.333,93.5081 203.5,92.5C 203.955,94.3666 204.622,96.1999 205.5,98C 205.472,99.0698 205.139,99.9032 204.5,100.5 Z"/></g>
<g><path style="opacity:1" fill="#49f0cf" d="M 74.5,84.5 C 70.3988,89.7006 67.0654,95.3672 64.5,101.5C 63.0227,104.591 61.3561,107.591 59.5,110.5C 58.4415,111.6 57.6082,112.934 57,114.5C 55.3374,110.261 55.1708,105.927 56.5,101.5C 59.9545,93.5411 64.4545,86.2077 70,79.5C 72.4356,76.5532 75.2689,74.2199 78.5,72.5C 80.0174,72.4894 81.1841,71.8228 82,70.5C 82.1667,71.3333 82.3333,72.1667 82.5,73C 81.5077,74.9231 80.341,76.7564 79,78.5C 75.8022,79.2297 74.3022,81.2297 74.5,84.5 Z"/></g>
<g><path style="opacity:1" fill="#2a4c67" d="M 119.5,84.5 C 119.821,82.9519 120.821,82.2852 122.5,82.5C 121.331,89.1904 123.497,90.8571 129,87.5C 129.29,85.9559 129.956,84.6226 131,83.5C 137.541,83.3797 144.041,83.3797 150.5,83.5C 150.5,100.167 150.5,116.833 150.5,133.5C 147.034,131.908 143.367,131.242 139.5,131.5C 139.795,129.265 139.461,127.265 138.5,125.5C 138.5,124.5 138.5,123.5 138.5,122.5C 137.623,118.09 139.123,114.757 143,112.5C 147.44,106.307 148.44,99.6406 146,92.5C 140.972,88.1031 136.639,88.7698 133,94.5C 131.575,101.385 131.075,108.385 131.5,115.5C 130.292,114.766 128.959,114.433 127.5,114.5C 127.79,110.064 127.29,105.73 126,101.5C 123.847,99.5561 121.347,99.0561 118.5,100C 117.663,101.011 117.33,102.178 117.5,103.5C 117.5,104.833 117.5,106.167 117.5,107.5C 115.833,107.5 114.167,107.5 112.5,107.5C 112.5,105.5 112.5,103.5 112.5,101.5C 112.238,99.4362 111.071,98.1029 109,97.5C 108.689,95.444 108.189,93.444 107.5,91.5C 104.856,90.259 104.023,88.259 105,85.5C 106.709,83.8248 108.376,82.1581 110,80.5C 110.374,81.4162 110.874,82.2496 111.5,83C 110.833,85.6667 110.167,88.3333 109.5,91C 116.644,94.5576 119.977,92.3909 119.5,84.5 Z"/></g>
<g><path style="opacity:1" fill="#3ed6c9" d="M 112.5,83.5 C 117.328,83.3852 118.661,85.5519 116.5,90C 114.888,90.7203 113.388,90.5536 112,89.5C 111.51,87.4546 111.677,85.4546 112.5,83.5 Z"/></g>
<g><path style="opacity:1" fill="#4de1ca" d="M 157.5,84.5 C 157.5,84.8333 157.5,85.1667 157.5,85.5C 157.699,101.509 157.866,117.509 158,133.5C 153.558,132.716 151.724,130.05 152.5,125.5C 152.167,125.5 151.833,125.5 151.5,125.5C 151.333,111.829 151.5,98.1626 152,84.5C 153.828,83.2475 155.661,83.2475 157.5,84.5 Z"/></g>
<g><path style="opacity:1" fill="#3df8cd" d="M 152.5,125.5 C 152.333,112.496 152.5,99.4957 153,86.5C 154,85.1667 155,85.1667 156,86.5C 156.313,99.5143 156.813,112.514 157.5,125.5C 155.833,125.5 154.167,125.5 152.5,125.5 Z"/></g>
<g><path style="opacity:1" fill="#4aebcb" d="M 176.5,57.5 C 204.82,71.1072 221.82,93.4405 227.5,124.5C 227.167,124.5 226.833,124.5 226.5,124.5C 223.803,117.856 221.469,111.022 219.5,104C 218.365,103.251 217.365,103.417 216.5,104.5C 218.665,109.989 219.998,115.656 220.5,121.5C 219.097,115.961 217.097,110.628 214.5,105.5C 213.286,102.07 211.786,98.7365 210,95.5C 204.161,85.4344 196.327,77.4344 186.5,71.5C 184.833,70.1667 183.167,68.8333 181.5,67.5C 183.195,66.9886 184.861,66.3219 186.5,65.5C 186.333,65.1667 186.167,64.8333 186,64.5C 182.3,62.7065 179.134,60.3732 176.5,57.5 Z"/></g>
<g><path style="opacity:1" fill="#26596c" d="M 204.5,100.5 C 205.209,101.404 206.209,101.737 207.5,101.5C 205.39,106.646 205.056,111.979 206.5,117.5C 209,118.209 211.333,118.542 213.5,118.5C 213.342,128.544 212.342,138.211 210.5,147.5C 210.666,138.827 210.5,130.16 210,121.5C 207.67,119.968 205.67,120.302 204,122.5C 203.333,131.167 203.333,139.833 204,148.5C 204.519,149.516 205.353,150.182 206.5,150.5C 207.849,150.154 209.183,149.821 210.5,149.5C 210.582,151.252 209.749,152.252 208,152.5C 205.567,151.521 203.067,150.855 200.5,150.5C 200.663,152.857 200.497,155.19 200,157.5C 197.984,159.608 195.817,159.942 193.5,158.5C 194.93,158.579 196.264,158.246 197.5,157.5C 198.813,144.438 198.813,131.438 197.5,118.5C 196.713,116.896 195.38,116.229 193.5,116.5C 193.5,114.833 193.5,113.167 193.5,111.5C 195.144,111.714 196.644,111.38 198,110.5C 198.667,107.833 198.667,105.167 198,102.5C 196.333,101.167 194.667,101.167 193,102.5C 192.503,105.146 192.336,107.813 192.5,110.5C 191.517,106.702 191.183,102.702 191.5,98.5C 194.518,98.4935 197.184,97.4935 199.5,95.5C 200.357,96.7357 201.023,98.069 201.5,99.5C 202.325,100.386 203.325,100.719 204.5,100.5 Z"/></g>
<g><path style="opacity:1" fill="#2e4e6c" d="M 73.5,97.5 C 75.8757,105.406 76.3757,113.406 75,121.5C 74.5172,120.552 74.3505,119.552 74.5,118.5C 73.5,118.5 72.5,118.5 71.5,118.5C 71.38,117.414 70.7133,116.747 69.5,116.5C 67.7284,117.36 66.3951,118.693 65.5,120.5C 64.1771,130.659 64.1771,140.659 65.5,150.5C 65.5,152.833 65.5,155.167 65.5,157.5C 63.2239,157.244 62.0572,155.91 62,153.5C 61.6667,154.167 61.3333,154.833 61,155.5C 60.8125,151.277 59.9792,147.277 58.5,143.5C 58.3338,137.491 58.5005,131.491 59,125.5C 59.414,125.043 59.914,124.709 60.5,124.5C 61.4922,120.217 61.8256,115.884 61.5,111.5C 62.8333,111.5 64.1667,111.5 65.5,111.5C 64.9492,108.193 64.6159,104.86 64.5,101.5C 65.8221,101.67 66.9887,101.337 68,100.5C 68.1532,95.5251 69.9865,94.5251 73.5,97.5 Z"/></g>
<g><path style="opacity:1" fill="#cbf1f6" d="M 138.5,122.5 C 138.018,119.954 137.018,117.621 135.5,115.5C 134.155,116.347 133.155,117.513 132.5,119C 131.551,119.617 130.718,119.451 130,118.5C 129.7,120.066 130.2,121.399 131.5,122.5C 127.312,126.493 123.812,131.16 121,136.5C 119.763,140.06 119.263,143.727 119.5,147.5C 118.691,149.292 118.191,151.292 118,153.5C 117.667,152.167 117.333,150.833 117,149.5C 116.23,150.598 115.397,150.598 114.5,149.5C 112.901,141.106 114.735,133.44 120,126.5C 123.729,122.602 127.562,118.935 131.5,115.5C 131.075,108.385 131.575,101.385 133,94.5C 136.639,88.7698 140.972,88.1031 146,92.5C 148.44,99.6406 147.44,106.307 143,112.5C 139.123,114.757 137.623,118.09 138.5,122.5 Z"/></g>
<g><path style="opacity:1" fill="#214553" d="M 138.5,95.5 C 140.948,95.0847 142.281,96.0847 142.5,98.5C 142.011,103.144 140.177,107.144 137,110.5C 136.092,105.311 136.592,100.311 138.5,95.5 Z"/></g>
<g><path style="opacity:1" fill="#54e5d1" d="M 193.5,111.5 C 192.833,111.5 192.5,111.167 192.5,110.5C 192.336,107.813 192.503,105.146 193,102.5C 194.667,101.167 196.333,101.167 198,102.5C 198.667,105.167 198.667,107.833 198,110.5C 196.644,111.38 195.144,111.714 193.5,111.5 Z"/></g>
<g><path style="opacity:1" fill="#1da59e" d="M 111.5,101.5 C 111.833,101.5 112.167,101.5 112.5,101.5C 112.5,103.5 112.5,105.5 112.5,107.5C 114.167,107.5 115.833,107.5 117.5,107.5C 117.5,106.167 117.5,104.833 117.5,103.5C 119.757,101.416 122.257,101.083 125,102.5C 125.667,107.833 125.667,113.167 125,118.5C 120.198,122.459 116.365,127.126 113.5,132.5C 114.601,128.944 115.601,125.277 116.5,121.5C 117.491,117.555 117.824,113.555 117.5,109.5C 115.833,109.5 114.167,109.5 112.5,109.5C 111.612,106.946 111.279,104.279 111.5,101.5 Z"/></g>
<g><path style="opacity:1" fill="#184f60" d="M 94.5,88.5 C 96.205,89.5353 97.8716,89.5353 99.5,88.5C 100.362,89.7658 101.029,91.0992 101.5,92.5C 101.5,93.1667 101.5,93.8333 101.5,94.5C 100.833,126.833 100.167,159.167 99.5,191.5C 99.5,188.5 99.5,185.5 99.5,182.5C 98.5,182.5 97.5,182.5 96.5,182.5C 96.6666,151.832 96.5,121.165 96,90.5C 95.2828,89.9558 94.7828,89.2891 94.5,88.5 Z"/></g>
<g><path style="opacity:1" fill="#23e0c0" d="M 106.5,100.5 C 108.216,100.629 109.883,100.962 111.5,101.5C 111.279,104.279 111.612,106.946 112.5,109.5C 112.831,117.86 112.498,126.193 111.5,134.5C 110.186,135.313 109.019,136.313 108,137.5C 107.5,144.826 107.334,152.159 107.5,159.5C 108.833,159.5 110.167,159.5 111.5,159.5C 112.134,165.145 112.468,170.811 112.5,176.5C 110.711,181.407 109.878,186.74 110,192.5C 108.301,191.594 106.467,191.261 104.5,191.5C 104.488,162.58 104.155,133.913 103.5,105.5C 103.833,103.833 104.167,102.167 104.5,100.5C 105.429,101.55 106.095,101.55 106.5,100.5 Z"/></g>
<g><path style="opacity:1" fill="#225267" d="M 94.5,87.5 C 94.5,87.8333 94.5,88.1667 94.5,88.5C 92.6096,88.2965 91.1096,88.9632 90,90.5C 89.1694,121.003 89.3361,151.336 90.5,181.5C 91.5772,184.972 93.2439,185.305 95.5,182.5C 95.8333,182.5 96.1667,182.5 96.5,182.5C 96.3152,184.89 94.9818,185.89 92.5,185.5C 91.0055,185.291 89.8388,184.624 89,183.5C 88.6667,161.5 88.3333,139.5 88,117.5C 86.8518,130.519 86.0185,143.519 85.5,156.5C 85.8287,143.656 85.4954,130.989 84.5,118.5C 82.5,115.833 80.5,115.833 78.5,118.5C 77.3396,131.66 77.173,144.994 78,158.5C 79.6995,159.406 81.5328,159.739 83.5,159.5C 81.9254,161.114 81.2587,163.114 81.5,165.5C 79.744,164.448 79.0773,162.781 79.5,160.5C 77.1667,160.5 74.8333,160.5 72.5,160.5C 72.5457,157.908 73.5457,155.741 75.5,154C 75.1667,153.5 74.8333,153 74.5,152.5C 72.2241,153.213 69.8907,153.713 67.5,154C 68.1667,155.667 68.8333,157.333 69.5,159C 68.7562,160.039 67.7562,160.539 66.5,160.5C 65.596,159.791 65.2627,158.791 65.5,157.5C 65.5,155.167 65.5,152.833 65.5,150.5C 68.2841,153.22 70.6175,152.886 72.5,149.5C 73.4933,140.682 73.8266,131.682 73.5,122.5C 73.2671,120.938 72.6005,119.605 71.5,118.5C 72.5,118.5 73.5,118.5 74.5,118.5C 74.3505,119.552 74.5172,120.552 75,121.5C 76.3757,113.406 75.8757,105.406 73.5,97.5C 73.5,96.8333 73.5,96.1667 73.5,95.5C 76.1667,94.5 78.8333,93.5 81.5,92.5C 80.8333,90.5 80.1667,88.5 79.5,86.5C 80.8333,86.5 82.1667,86.5 83.5,86.5C 82.8838,90.5486 84.0505,93.8819 87,96.5C 86.3226,90.6233 88.8226,87.6233 94.5,87.5 Z"/></g>
<g><path style="opacity:1" fill="#185e67" d="M 78.5,97.5 C 78.3347,101.182 78.5014,104.848 79,108.5C 80.6995,109.406 82.5328,109.739 84.5,109.5C 84.5,105.5 84.5,101.5 84.5,97.5C 85.7251,98.1522 86.3917,99.3189 86.5,101C 88.2799,108.609 85.2799,112.109 77.5,111.5C 76.7512,107.181 76.5845,102.848 77,98.5C 77.3826,97.944 77.8826,97.6107 78.5,97.5 Z"/></g>
<g><path style="opacity:1" fill="#5ee3d5" d="M 84.5,97.5 C 84.5,101.5 84.5,105.5 84.5,109.5C 82.5328,109.739 80.6995,109.406 79,108.5C 78.5014,104.848 78.3347,101.182 78.5,97.5C 80.5,94.8333 82.5,94.8333 84.5,97.5 Z"/></g>
<g><path style="opacity:1" fill="#40f3cf" d="M 80.5,97.5 C 81.5,97.5 82.5,97.5 83.5,97.5C 83.5,101.167 83.5,104.833 83.5,108.5C 82.1779,108.67 81.0113,108.337 80,107.5C 79.2534,104.076 79.42,100.743 80.5,97.5 Z"/></g>
<g><path style="opacity:1" fill="#51ebd1" d="M 56.5,101.5 C 55.1708,105.927 55.3374,110.261 57,114.5C 57.6082,112.934 58.4415,111.6 59.5,110.5C 55.9422,122.258 54.7755,134.258 56,146.5C 56.6137,151.11 57.7803,155.443 59.5,159.5C 59.5838,162.327 60.2504,164.994 61.5,167.5C 60.2502,167.423 59.4169,166.756 59,165.5C 57.282,161.005 55.9486,156.338 55,151.5C 54.8322,141.483 54.3322,131.483 53.5,121.5C 51.6307,126.318 50.6307,131.318 50.5,136.5C 51.0601,147.429 52.7268,158.096 55.5,168.5C 54.1667,166.167 52.8333,163.833 51.5,161.5C 49.5581,148.247 49.0581,134.913 50,121.5C 51.0992,114.371 53.2659,107.705 56.5,101.5 Z"/></g>
<g><path style="opacity:1" fill="#195464" d="M 64.5,101.5 C 64.6159,104.86 64.9492,108.193 65.5,111.5C 64.1667,111.5 62.8333,111.5 61.5,111.5C 61.8256,115.884 61.4922,120.217 60.5,124.5C 59.914,124.709 59.414,125.043 59,125.5C 58.5005,131.491 58.3338,137.491 58.5,143.5C 57.8529,144.274 57.5195,145.274 57.5,146.5C 58.6506,150.766 59.3173,155.1 59.5,159.5C 57.7803,155.443 56.6137,151.11 56,146.5C 54.7755,134.258 55.9422,122.258 59.5,110.5C 61.3561,107.591 63.0227,104.591 64.5,101.5 Z"/></g>
<g><path style="opacity:1" fill="#29e6c7" d="M 171.5,75.5 C 169.825,114.195 168.825,153.195 168.5,192.5C 169.782,195.133 171.116,195.133 172.5,192.5C 173.107,192.624 173.44,192.957 173.5,193.5C 171.427,196.169 169.26,196.502 167,194.5C 166.712,182.678 166.879,170.845 167.5,159C 164.928,145.012 163.928,130.846 164.5,116.5C 164.5,116.167 164.5,115.833 164.5,115.5C 165.75,115.423 166.583,114.756 167,113.5C 167.72,103.496 168.053,93.4964 168,83.5C 167.094,86.1208 166.594,85.9541 166.5,83C 167,80.5 167.5,78 168,75.5C 169.292,74.2089 170.458,74.2089 171.5,75.5 Z"/></g>
<g><path style="opacity:1" fill="#1fa49d" d="M 164.5,77.5 C 164.5,90.1667 164.5,102.833 164.5,115.5C 164.5,115.833 164.5,116.167 164.5,116.5C 163.353,141.671 163.353,167.004 164.5,192.5C 163.673,187.349 163.173,182.016 163,176.5C 161.062,177.86 159.396,177.527 158,175.5C 157.781,170.418 157.281,165.418 156.5,160.5C 157.708,159.766 159.041,159.433 160.5,159.5C 163.991,148.533 161.324,139.533 152.5,132.5C 151.526,130.257 151.192,127.924 151.5,125.5C 151.833,125.5 152.167,125.5 152.5,125.5C 151.724,130.05 153.558,132.716 158,133.5C 157.866,117.509 157.699,101.509 157.5,85.5C 158.167,85.5 158.5,85.8333 158.5,86.5C 158.5,96.1667 158.5,105.833 158.5,115.5C 160.167,115.5 161.833,115.5 163.5,115.5C 163.171,102.656 163.505,89.989 164.5,77.5 Z"/></g>
<g><path style="opacity:1" fill="#1b5965" d="M 71.5,118.5 C 72.6005,119.605 73.2671,120.938 73.5,122.5C 71.5807,120.478 69.4141,120.144 67,121.5C 66.176,130.676 66.3427,139.676 67.5,148.5C 68.7476,150.69 70.4143,151.023 72.5,149.5C 70.6175,152.886 68.2841,153.22 65.5,150.5C 64.1771,140.659 64.1771,130.659 65.5,120.5C 66.3951,118.693 67.7284,117.36 69.5,116.5C 70.7133,116.747 71.38,117.414 71.5,118.5 Z"/></g>
<g><path style="opacity:1" fill="#13515f" d="M 180.5,91.5 C 180.169,121.671 180.502,151.671 181.5,181.5C 182.609,185.029 184.442,185.362 187,182.5C 187.5,153.502 187.667,124.502 187.5,95.5C 187.5,94.1667 187.5,92.8333 187.5,91.5C 187.833,91.5 188.167,91.5 188.5,91.5C 189.293,103.455 189.793,115.455 190,127.5C 190.333,124.833 190.667,122.167 191,119.5C 191.236,117.881 192.069,116.881 193.5,116.5C 195.38,116.229 196.713,116.896 197.5,118.5C 195.856,118.286 194.356,118.62 193,119.5C 192.5,131.829 192.333,144.162 192.5,156.5C 191.944,151.839 191.11,147.172 190,142.5C 189.333,153.5 189.333,164.5 190,175.5C 190.333,172.833 190.667,170.167 191,167.5C 191.383,166.944 191.883,166.611 192.5,166.5C 192.334,170.514 192.501,174.514 193,178.5C 193.671,179.252 194.504,179.586 195.5,179.5C 194.469,180.249 193.302,180.915 192,181.5C 191.333,180.167 190.667,178.833 190,177.5C 190.206,183.462 187.373,186.129 181.5,185.5C 180.85,185.196 180.183,184.863 179.5,184.5C 177.905,187.607 177.572,190.774 178.5,194C 178.164,195.03 177.497,195.53 176.5,195.5C 176.5,172.833 176.5,150.167 176.5,127.5C 177.331,143.328 177.831,159.328 178,175.5C 178.778,147.336 179.611,119.336 180.5,91.5 Z"/></g>
<g><path style="opacity:1" fill="#5be5d2" d="M 197.5,118.5 C 198.813,131.438 198.813,144.438 197.5,157.5C 196.264,158.246 194.93,158.579 193.5,158.5C 193.167,157.833 192.833,157.167 192.5,156.5C 192.333,144.162 192.5,131.829 193,119.5C 194.356,118.62 195.856,118.286 197.5,118.5 Z"/></g>
<g><path style="opacity:1" fill="#57dbc9" d="M 210.5,147.5 C 210.5,148.167 210.5,148.833 210.5,149.5C 209.183,149.821 207.849,150.154 206.5,150.5C 205.353,150.182 204.519,149.516 204,148.5C 203.333,139.833 203.333,131.167 204,122.5C 205.67,120.302 207.67,119.968 210,121.5C 210.5,130.16 210.666,138.827 210.5,147.5 Z"/></g>
<g><path style="opacity:1" fill="#43f7cf" d="M 206.5,123.5 C 207.496,123.414 208.329,123.748 209,124.5C 209.667,131.833 209.667,139.167 209,146.5C 207.989,147.337 206.822,147.67 205.5,147.5C 205.199,139.414 205.533,131.414 206.5,123.5 Z"/></g>
<g><path style="opacity:1" fill="#304f6e" d="M 207.5,101.5 C 211.224,105.263 214.224,109.597 216.5,114.5C 216.5,114.833 216.5,115.167 216.5,115.5C 218.477,128.444 217.477,141.11 213.5,153.5C 213.167,153.833 212.833,154.167 212.5,154.5C 212.167,153.833 211.833,153.167 211.5,152.5C 212.834,142.172 214.167,131.839 215.5,121.5C 215.058,120.261 214.391,119.261 213.5,118.5C 211.333,118.542 209,118.209 206.5,117.5C 205.056,111.979 205.39,106.646 207.5,101.5 Z"/></g>
<g><path style="opacity:1" fill="#55cebf" d="M 73.5,122.5 C 73.8266,131.682 73.4933,140.682 72.5,149.5C 72.6664,141.16 72.4997,132.827 72,124.5C 69.7403,122.003 68.407,122.67 68,126.5C 67.5003,133.826 67.3337,141.159 67.5,148.5C 66.3427,139.676 66.176,130.676 67,121.5C 69.4141,120.144 71.5807,120.478 73.5,122.5 Z"/></g>
<g><path style="opacity:1" fill="#4bf6ce" d="M 72.5,149.5 C 70.4143,151.023 68.7476,150.69 67.5,148.5C 67.3337,141.159 67.5003,133.826 68,126.5C 68.407,122.67 69.7403,122.003 72,124.5C 72.4997,132.827 72.6664,141.16 72.5,149.5 Z"/></g>
<g><path style="opacity:1" fill="#0e7a78" d="M 78.5,118.5 C 78.3334,131.504 78.5001,144.504 79,157.5C 80.6667,158.833 82.3333,158.833 84,157.5C 84.4999,144.504 84.6666,131.504 84.5,118.5C 85.4954,130.989 85.8287,143.656 85.5,156.5C 85.573,158.027 84.9063,159.027 83.5,159.5C 81.5328,159.739 79.6995,159.406 78,158.5C 77.173,144.994 77.3396,131.66 78.5,118.5 Z"/></g>
<g><path style="opacity:1" fill="#4af6cf" d="M 95.5,182.5 C 93.2439,185.305 91.5772,184.972 90.5,181.5C 90.3334,151.831 90.5,122.165 91,92.5C 92.3333,91.1667 93.6667,91.1667 95,92.5C 95.5,122.498 95.6666,152.498 95.5,182.5 Z"/></g>
<g><path style="opacity:1" fill="#50cec1" d="M 94.5,88.5 C 94.7828,89.2891 95.2828,89.9558 96,90.5C 96.5,121.165 96.6666,151.832 96.5,182.5C 96.1667,182.5 95.8333,182.5 95.5,182.5C 95.6666,152.498 95.5,122.498 95,92.5C 93.6667,91.1667 92.3333,91.1667 91,92.5C 90.5,122.165 90.3334,151.831 90.5,181.5C 89.3361,151.336 89.1694,121.003 90,90.5C 91.1096,88.9632 92.6096,88.2965 94.5,88.5 Z"/></g>
<g><path style="opacity:1" fill="#24465a" d="M 131.5,122.5 C 133.482,124.583 134.482,127.249 134.5,130.5C 134.38,132.588 133.38,133.922 131.5,134.5C 124.379,140.642 123.713,147.475 129.5,155C 131.769,157.023 134.436,157.856 137.5,157.5C 137.5,159.5 137.5,161.5 137.5,163.5C 128.026,162.024 122.026,156.691 119.5,147.5C 119.263,143.727 119.763,140.06 121,136.5C 123.812,131.16 127.312,126.493 131.5,122.5 Z"/></g>
<g><path style="opacity:1" fill="#d0f7fb" d="M 138.5,122.5 C 138.5,123.5 138.5,124.5 138.5,125.5C 138.917,128.079 138.25,130.246 136.5,132C 137.025,132.692 137.692,133.192 138.5,133.5C 140.432,132.48 142.432,132.313 144.5,133C 144.167,133.333 143.833,133.667 143.5,134C 145.439,134.908 146.439,136.408 146.5,138.5C 144.621,137.659 142.621,137.325 140.5,137.5C 140.5,139.5 140.5,141.5 140.5,143.5C 139.5,143.5 138.5,143.5 137.5,143.5C 137.75,146.214 137.917,148.881 138,151.5C 137.722,150.584 137.222,149.918 136.5,149.5C 136.693,145.987 136.026,142.654 134.5,139.5C 133.265,140.34 132.265,141.34 131.5,142.5C 130.078,142.25 129.078,141.417 128.5,140C 130.607,138.736 131.607,136.903 131.5,134.5C 133.38,133.922 134.38,132.588 134.5,130.5C 134.482,127.249 133.482,124.583 131.5,122.5C 130.2,121.399 129.7,120.066 130,118.5C 130.718,119.451 131.551,119.617 132.5,119C 133.155,117.513 134.155,116.347 135.5,115.5C 137.018,117.621 138.018,119.954 138.5,122.5 Z"/></g>
<g><path style="opacity:1" fill="#5ee9d8" d="M 84.5,118.5 C 84.6666,131.504 84.4999,144.504 84,157.5C 82.3333,158.833 80.6667,158.833 79,157.5C 78.5001,144.504 78.3334,131.504 78.5,118.5C 80.5,115.833 82.5,115.833 84.5,118.5 Z"/></g>
<g><path style="opacity:1" fill="#47d5cb" d="M 111.5,101.5 C 109.883,100.962 108.216,100.629 106.5,100.5C 106.662,98.4727 106.495,96.4727 106,94.5C 105,93.1667 104,93.1667 103,94.5C 102.333,126.833 102.333,159.167 103,191.5C 104.188,192.563 104.688,193.897 104.5,195.5C 106.5,195.5 108.5,195.5 110.5,195.5C 107.41,198.363 104.577,198.029 102,194.5C 101.5,161.168 101.333,127.835 101.5,94.5C 101.5,93.8333 101.5,93.1667 101.5,92.5C 103.166,91.3336 104.833,91.3336 106.5,92.5C 107.374,94.7466 107.708,97.0799 107.5,99.5C 109.38,99.2291 110.713,99.8958 111.5,101.5 Z"/></g>
<g><path style="opacity:1" fill="#0b5257" d="M 214.5,105.5 C 217.097,110.628 219.097,115.961 220.5,121.5C 221.248,128.809 221.582,136.142 221.5,143.5C 220.743,147.881 219.743,152.214 218.5,156.5C 219.909,143.486 219.742,130.486 218,117.5C 217.722,116.584 217.222,115.918 216.5,115.5C 216.5,115.167 216.5,114.833 216.5,114.5C 215.539,111.574 214.873,108.574 214.5,105.5 Z"/></g>
<g><path style="opacity:0.687" fill="#2d5762" d="M 229.5,125.5 C 231.007,135.323 230.674,144.989 228.5,154.5C 227.596,153.791 227.263,152.791 227.5,151.5C 227.5,149.833 227.5,148.167 227.5,146.5C 228.167,139.5 228.833,132.5 229.5,125.5 Z"/></g>
<g><path style="opacity:1" fill="#45f7ce" d="M 226.5,124.5 C 227.86,141.408 225.194,157.575 218.5,173C 218.167,173.5 217.833,174 217.5,174.5C 216.784,168.545 217.951,162.878 221,157.5C 221.499,152.845 221.666,148.179 221.5,143.5C 221.582,136.142 221.248,128.809 220.5,121.5C 219.998,115.656 218.665,109.989 216.5,104.5C 217.365,103.417 218.365,103.251 219.5,104C 221.469,111.022 223.803,117.856 226.5,124.5 Z"/></g>
<g><path style="opacity:1" fill="#cbf0f6" d="M 138.5,125.5 C 139.461,127.265 139.795,129.265 139.5,131.5C 143.367,131.242 147.034,131.908 150.5,133.5C 158.095,138.896 160.595,146.229 158,155.5C 157.392,157.154 156.892,158.821 156.5,160.5C 153.298,164.369 149.298,167.036 144.5,168.5C 143.072,165.697 142.405,162.697 142.5,159.5C 142.833,159.5 143.167,159.5 143.5,159.5C 143.281,160.675 143.614,161.675 144.5,162.5C 152.016,158.113 154.516,151.78 152,143.5C 150.621,141.285 148.787,139.619 146.5,138.5C 146.439,136.408 145.439,134.908 143.5,134C 143.833,133.667 144.167,133.333 144.5,133C 142.432,132.313 140.432,132.48 138.5,133.5C 137.692,133.192 137.025,132.692 136.5,132C 138.25,130.246 138.917,128.079 138.5,125.5 Z"/></g>
<g><path style="opacity:1" fill="#0d5f6a" d="M 101.5,94.5 C 101.333,127.835 101.5,161.168 102,194.5C 104.577,198.029 107.41,198.363 110.5,195.5C 111.404,194.791 111.737,193.791 111.5,192.5C 111.833,192.5 112.167,192.5 112.5,192.5C 112.5,193.833 112.5,195.167 112.5,196.5C 110.81,196.856 109.81,197.856 109.5,199.5C 103.542,200.215 100.209,197.549 99.5,191.5C 100.167,159.167 100.833,126.833 101.5,94.5 Z"/></g>
<g><path style="opacity:1" fill="#224558" d="M 146.5,138.5 C 148.787,139.619 150.621,141.285 152,143.5C 154.516,151.78 152.016,158.113 144.5,162.5C 143.614,161.675 143.281,160.675 143.5,159.5C 143.351,158.448 143.517,157.448 144,156.5C 145.011,157.337 146.178,157.67 147.5,157.5C 147.744,154.737 149.077,152.571 151.5,151C 150.167,148.667 148.833,146.333 147.5,144C 145.866,143.506 144.199,143.34 142.5,143.5C 142.784,145.415 142.451,147.081 141.5,148.5C 141.784,146.585 141.451,144.919 140.5,143.5C 140.5,141.5 140.5,139.5 140.5,137.5C 142.621,137.325 144.621,137.659 146.5,138.5 Z"/></g>
<g><path style="opacity:1" fill="#33f9d1" d="M 171.5,75.5 C 172.458,75.9528 173.292,76.6195 174,77.5C 174.831,116.336 174.665,155.002 173.5,193.5C 173.44,192.957 173.107,192.624 172.5,192.5C 171.116,195.133 169.782,195.133 168.5,192.5C 168.825,153.195 169.825,114.195 171.5,75.5 Z"/></g>
<g><path style="opacity:1" fill="#52e5cb" d="M 186.5,95.5 C 186.833,95.5 187.167,95.5 187.5,95.5C 187.667,124.502 187.5,153.502 187,182.5C 184.442,185.362 182.609,185.029 181.5,181.5C 181.5,153.167 181.5,124.833 181.5,96.5C 182.498,124.328 182.831,152.328 182.5,180.5C 183.5,180.5 184.5,180.5 185.5,180.5C 186.467,152.192 186.8,123.859 186.5,95.5 Z"/></g>
<g><path style="opacity:1" fill="#175863" d="M 157.5,83.5 C 157.5,83.8333 157.5,84.1667 157.5,84.5C 155.661,83.2475 153.828,83.2475 152,84.5C 151.5,98.1626 151.333,111.829 151.5,125.5C 151.192,127.924 151.526,130.257 152.5,132.5C 161.324,139.533 163.991,148.533 160.5,159.5C 159.041,159.433 157.708,159.766 156.5,160.5C 156.892,158.821 157.392,157.154 158,155.5C 160.595,146.229 158.095,138.896 150.5,133.5C 150.5,116.833 150.5,100.167 150.5,83.5C 151.915,82.7106 153.415,82.0439 155,81.5C 156.301,81.6387 157.134,82.3054 157.5,83.5 Z"/></g>
<g><path style="opacity:1" fill="#0d6c70" d="M 172.5,73.5 C 173.583,73.5394 174.583,73.8728 175.5,74.5C 176.5,92.1541 176.833,109.821 176.5,127.5C 176.5,150.167 176.5,172.833 176.5,195.5C 175.395,196.6 174.062,197.267 172.5,197.5C 173.122,196.373 173.955,195.373 175,194.5C 175.833,154.829 175.667,115.162 174.5,75.5C 173.478,75.1445 172.811,74.4778 172.5,73.5 Z"/></g>
<g><path style="opacity:1" fill="#3df6cd" d="M 80.5,118.5 C 81.4959,118.414 82.3292,118.748 83,119.5C 83.6667,131.167 83.6667,142.833 83,154.5C 82,155.833 81,155.833 80,154.5C 79.1888,142.424 79.3554,130.424 80.5,118.5 Z"/></g>
<g><path style="opacity:1" fill="#43e6d0" d="M 172.5,73.5 C 172.811,74.4778 173.478,75.1445 174.5,75.5C 175.667,115.162 175.833,154.829 175,194.5C 173.955,195.373 173.122,196.373 172.5,197.5C 168.254,198.239 165.587,196.573 164.5,192.5C 163.353,167.004 163.353,141.671 164.5,116.5C 163.928,130.846 164.928,145.012 167.5,159C 166.879,170.845 166.712,182.678 167,194.5C 169.26,196.502 171.427,196.169 173.5,193.5C 174.665,155.002 174.831,116.336 174,77.5C 173.292,76.6195 172.458,75.9528 171.5,75.5C 170.458,74.2089 169.292,74.2089 168,75.5C 167.5,78 167,80.5 166.5,83C 166.594,85.9541 167.094,86.1208 168,83.5C 168.053,93.4964 167.72,103.496 167,113.5C 166.583,114.756 165.75,115.423 164.5,115.5C 164.5,102.833 164.5,90.1667 164.5,77.5C 164.511,75.9826 165.177,74.8159 166.5,74C 168.473,73.5045 170.473,73.3379 172.5,73.5 Z"/></g>
<g><path style="opacity:1" fill="#204253" d="M 136.5,149.5 C 135.464,151.688 133.964,151.688 132,149.5C 131.503,147.19 131.337,144.857 131.5,142.5C 132.265,141.34 133.265,140.34 134.5,139.5C 136.026,142.654 136.693,145.987 136.5,149.5 Z"/></g>
<g><path style="opacity:1" fill="#1dc8b2" d="M 112.5,109.5 C 114.167,109.5 115.833,109.5 117.5,109.5C 117.824,113.555 117.491,117.555 116.5,121.5C 115.601,125.277 114.601,128.944 113.5,132.5C 111.295,138.989 110.962,145.656 112.5,152.5C 112.335,155.85 112.502,159.183 113,162.5C 113.833,163.5 114.667,164.5 115.5,165.5C 116.665,172.811 116.831,180.144 116,187.5C 114.271,187.974 113.105,188.974 112.5,190.5C 112.5,191.167 112.5,191.833 112.5,192.5C 112.167,192.5 111.833,192.5 111.5,192.5C 112.194,187.195 112.528,181.862 112.5,176.5C 112.468,170.811 112.134,165.145 111.5,159.5C 110.167,159.5 108.833,159.5 107.5,159.5C 107.334,152.159 107.5,144.826 108,137.5C 109.019,136.313 110.186,135.313 111.5,134.5C 112.498,126.193 112.831,117.86 112.5,109.5 Z"/></g>
<g><path style="opacity:1" fill="#41f3ce" d="M 194.5,121.5 C 195.5,121.5 196.5,121.5 197.5,121.5C 197.5,133.167 197.5,144.833 197.5,156.5C 196.178,156.67 195.011,156.337 194,155.5C 193.19,144.091 193.357,132.757 194.5,121.5 Z"/></g>
<g><path style="opacity:1" fill="#2fe4cb" d="M 106.5,100.5 C 106.095,101.55 105.429,101.55 104.5,100.5C 104.167,102.167 103.833,103.833 103.5,105.5C 104.155,133.913 104.488,162.58 104.5,191.5C 106.467,191.261 108.301,191.594 110,192.5C 109.878,186.74 110.711,181.407 112.5,176.5C 112.528,181.862 112.194,187.195 111.5,192.5C 111.737,193.791 111.404,194.791 110.5,195.5C 108.5,195.5 106.5,195.5 104.5,195.5C 104.688,193.897 104.188,192.563 103,191.5C 102.333,159.167 102.333,126.833 103,94.5C 104,93.1667 105,93.1667 106,94.5C 106.495,96.4727 106.662,98.4727 106.5,100.5 Z"/></g>
<g><path style="opacity:1" fill="#1c5d68" d="M 143.5,159.5 C 143.167,159.5 142.833,159.5 142.5,159.5C 142.448,155.802 142.114,152.135 141.5,148.5C 142.451,147.081 142.784,145.415 142.5,143.5C 144.199,143.34 145.866,143.506 147.5,144C 148.833,146.333 150.167,148.667 151.5,151C 149.077,152.571 147.744,154.737 147.5,157.5C 146.178,157.67 145.011,157.337 144,156.5C 143.517,157.448 143.351,158.448 143.5,159.5 Z"/></g>
<g><path style="opacity:1" fill="#4bdbcc" d="M 143.5,145.5 C 146.734,145.237 148.068,146.737 147.5,150C 147.873,152.617 146.873,154.45 144.5,155.5C 143.513,152.232 143.18,148.898 143.5,145.5 Z"/></g>
<g><path style="opacity:1" fill="#50bcb5" d="M 187.5,91.5 C 187.5,92.8333 187.5,94.1667 187.5,95.5C 187.167,95.5 186.833,95.5 186.5,95.5C 187.169,91.3241 185.669,89.9907 182,91.5C 181.506,93.1341 181.34,94.8008 181.5,96.5C 181.5,124.833 181.5,153.167 181.5,181.5C 180.502,151.671 180.169,121.671 180.5,91.5C 181.134,90.0532 182.301,89.3866 184,89.5C 185.699,89.3866 186.866,90.0532 187.5,91.5 Z"/></g>
<g><path style="opacity:1" fill="#2b526d" d="M 216.5,115.5 C 217.222,115.918 217.722,116.584 218,117.5C 219.742,130.486 219.909,143.486 218.5,156.5C 218.737,157.791 218.404,158.791 217.5,159.5C 215.775,162.625 214.275,165.958 213,169.5C 210.058,171.328 208.891,173.995 209.5,177.5C 208.5,177.5 207.5,177.5 206.5,177.5C 205.759,180.634 204.759,183.634 203.5,186.5C 199.74,185.774 197.073,187.107 195.5,190.5C 191.272,187.932 186.606,186.265 181.5,185.5C 187.373,186.129 190.206,183.462 190,177.5C 190.667,178.833 191.333,180.167 192,181.5C 193.302,180.915 194.469,180.249 195.5,179.5C 196.458,179.047 197.292,178.381 198,177.5C 198.667,173.833 198.667,170.167 198,166.5C 196.057,165.193 194.223,165.193 192.5,166.5C 191.883,166.611 191.383,166.944 191,167.5C 190.667,170.167 190.333,172.833 190,175.5C 189.333,164.5 189.333,153.5 190,142.5C 191.11,147.172 191.944,151.839 192.5,156.5C 192.833,157.167 193.167,157.833 193.5,158.5C 195.817,159.942 197.984,159.608 200,157.5C 200.497,155.19 200.663,152.857 200.5,150.5C 203.067,150.855 205.567,151.521 208,152.5C 209.749,152.252 210.582,151.252 210.5,149.5C 210.5,148.833 210.5,148.167 210.5,147.5C 212.342,138.211 213.342,128.544 213.5,118.5C 214.391,119.261 215.058,120.261 215.5,121.5C 214.167,131.839 212.834,142.172 211.5,152.5C 211.833,153.167 212.167,153.833 212.5,154.5C 212.833,154.167 213.167,153.833 213.5,153.5C 217.477,141.11 218.477,128.444 216.5,115.5 Z"/></g>
<g><path style="opacity:1" fill="#cbf2f7" d="M 131.5,134.5 C 131.607,136.903 130.607,138.736 128.5,140C 129.078,141.417 130.078,142.25 131.5,142.5C 131.337,144.857 131.503,147.19 132,149.5C 133.964,151.688 135.464,151.688 136.5,149.5C 137.222,149.918 137.722,150.584 138,151.5C 137.917,148.881 137.75,146.214 137.5,143.5C 138.5,143.5 139.5,143.5 140.5,143.5C 141.451,144.919 141.784,146.585 141.5,148.5C 142.114,152.135 142.448,155.802 142.5,159.5C 142.405,162.697 143.072,165.697 144.5,168.5C 143.795,174.045 142.961,179.712 142,185.5C 135.976,193.031 129.642,193.365 123,186.5C 122.505,184.527 122.338,182.527 122.5,180.5C 124.723,178.221 127.389,177.388 130.5,178C 132.994,180.244 132.994,182.577 130.5,185C 133.308,185.92 135.475,185.087 137,182.5C 138.195,178.249 138.695,173.915 138.5,169.5C 133.411,169.581 128.745,168.248 124.5,165.5C 119.165,161.482 115.832,156.149 114.5,149.5C 115.397,150.598 116.23,150.598 117,149.5C 117.333,150.833 117.667,152.167 118,153.5C 118.191,151.292 118.691,149.292 119.5,147.5C 122.026,156.691 128.026,162.024 137.5,163.5C 137.5,161.5 137.5,159.5 137.5,157.5C 134.436,157.856 131.769,157.023 129.5,155C 123.713,147.475 124.379,140.642 131.5,134.5 Z"/></g>
<g><path style="opacity:1" fill="#115762" d="M 59.5,159.5 C 62.6133,165.727 65.78,172.06 69,178.5C 71.6014,182.04 74.4347,185.373 77.5,188.5C 77.5,189.5 77.5,190.5 77.5,191.5C 76.1667,190.5 74.8333,189.5 73.5,188.5C 68.7393,181.984 64.7393,174.984 61.5,167.5C 60.2504,164.994 59.5838,162.327 59.5,159.5 Z"/></g>
<g><path style="opacity:1" fill="#23445d" d="M 124.5,165.5 C 128.745,168.248 133.411,169.581 138.5,169.5C 138.695,173.915 138.195,178.249 137,182.5C 135.475,185.087 133.308,185.92 130.5,185C 132.994,182.577 132.994,180.244 130.5,178C 127.389,177.388 124.723,178.221 122.5,180.5C 123.803,177.15 123.137,176.816 120.5,179.5C 119.337,174.198 119.171,168.864 120,163.5C 121.333,164.167 122.333,165.167 123,166.5C 123.383,165.944 123.883,165.611 124.5,165.5 Z"/></g>
<g><path style="opacity:1" fill="#0f4a56" d="M 217.5,159.5 C 215.603,167.292 212.603,174.626 208.5,181.5C 207.061,183.36 205.395,185.027 203.5,186.5C 204.759,183.634 205.759,180.634 206.5,177.5C 207.5,177.5 208.5,177.5 209.5,177.5C 208.891,173.995 210.058,171.328 213,169.5C 214.275,165.958 215.775,162.625 217.5,159.5 Z"/></g>
<g><path style="opacity:1" fill="#2e516f" d="M 58.5,143.5 C 59.9792,147.277 60.8125,151.277 61,155.5C 61.3333,154.833 61.6667,154.167 62,153.5C 62.0572,155.91 63.2239,157.244 65.5,157.5C 65.2627,158.791 65.596,159.791 66.5,160.5C 66.3367,162.857 66.5034,165.19 67,167.5C 72.0878,168.919 74.4211,172.252 74,177.5C 75.2635,179.607 77.0968,180.607 79.5,180.5C 79.67,179.178 79.3366,178.011 78.5,177C 80.7672,175.392 81.7672,176.225 81.5,179.5C 81.6602,181.199 81.4935,182.866 81,184.5C 79.3732,185.532 78.2066,186.866 77.5,188.5C 74.4347,185.373 71.6014,182.04 69,178.5C 65.78,172.06 62.6133,165.727 59.5,159.5C 59.3173,155.1 58.6506,150.766 57.5,146.5C 57.5195,145.274 57.8529,144.274 58.5,143.5 Z"/></g>
<g><path style="opacity:1" fill="#53e7d1" d="M 195.5,179.5 C 194.504,179.586 193.671,179.252 193,178.5C 192.501,174.514 192.334,170.514 192.5,166.5C 194.223,165.193 196.057,165.193 198,166.5C 198.667,170.167 198.667,173.833 198,177.5C 197.292,178.381 196.458,179.047 195.5,179.5 Z"/></g>
<g><path style="opacity:1" fill="#385c79" d="M 81.5,165.5 C 81.0415,170.537 82.0415,175.204 84.5,179.5C 84.1667,180.833 83.8333,182.167 83.5,183.5C 82.8281,182.051 82.1614,180.718 81.5,179.5C 81.7672,176.225 80.7672,175.392 78.5,177C 79.3366,178.011 79.67,179.178 79.5,180.5C 77.0968,180.607 75.2635,179.607 74,177.5C 74.4211,172.252 72.0878,168.919 67,167.5C 66.5034,165.19 66.3367,162.857 66.5,160.5C 67.7562,160.539 68.7562,160.039 69.5,159C 68.8333,157.333 68.1667,155.667 67.5,154C 69.8907,153.713 72.2241,153.213 74.5,152.5C 74.8333,153 75.1667,153.5 75.5,154C 73.5457,155.741 72.5457,157.908 72.5,160.5C 74.8333,160.5 77.1667,160.5 79.5,160.5C 79.0773,162.781 79.744,164.448 81.5,165.5 Z"/></g>
<g><path style="opacity:1" fill="#2e5470" d="M 96.5,182.5 C 97.5,182.5 98.5,182.5 99.5,182.5C 99.5,185.5 99.5,188.5 99.5,191.5C 100.209,197.549 103.542,200.215 109.5,199.5C 107.444,200.216 105.277,200.883 103,201.5C 103.207,203.751 103.373,206.085 103.5,208.5C 101.442,207.067 99.1085,206.4 96.5,206.5C 89.299,202.636 82.9657,197.636 77.5,191.5C 77.5,190.5 77.5,189.5 77.5,188.5C 78.2066,186.866 79.3732,185.532 81,184.5C 81.4935,182.866 81.6602,181.199 81.5,179.5C 82.1614,180.718 82.8281,182.051 83.5,183.5C 83.8333,182.167 84.1667,180.833 84.5,179.5C 82.0415,175.204 81.0415,170.537 81.5,165.5C 81.2587,163.114 81.9254,161.114 83.5,159.5C 84.9063,159.027 85.573,158.027 85.5,156.5C 86.0185,143.519 86.8518,130.519 88,117.5C 88.3333,139.5 88.6667,161.5 89,183.5C 89.8388,184.624 91.0055,185.291 92.5,185.5C 94.9818,185.89 96.3152,184.89 96.5,182.5 Z"/></g>
<g><path style="opacity:1" fill="#54e9ce" d="M 226.5,124.5 C 226.833,124.5 227.167,124.5 227.5,124.5C 227.5,131.833 227.5,139.167 227.5,146.5C 227.5,148.167 227.5,149.833 227.5,151.5C 224.264,167.955 217.097,182.622 206,195.5C 202.187,200.16 197.687,203.827 192.5,206.5C 193.72,204.718 194.386,202.718 194.5,200.5C 195.675,200.719 196.675,200.386 197.5,199.5C 196.635,198.417 195.635,198.251 194.5,199C 192.208,200.29 190.208,201.957 188.5,204C 186.975,205.009 185.308,205.509 183.5,205.5C 191.45,200.551 198.117,194.217 203.5,186.5C 205.395,185.027 207.061,183.36 208.5,181.5C 212.603,174.626 215.603,167.292 217.5,159.5C 218.404,158.791 218.737,157.791 218.5,156.5C 219.743,152.214 220.743,147.881 221.5,143.5C 221.666,148.179 221.499,152.845 221,157.5C 217.951,162.878 216.784,168.545 217.5,174.5C 217.833,174 218.167,173.5 218.5,173C 225.194,157.575 227.86,141.408 226.5,124.5 Z"/></g>
<g><path style="opacity:1" fill="#175061" d="M 131.5,115.5 C 127.562,118.935 123.729,122.602 120,126.5C 114.735,133.44 112.901,141.106 114.5,149.5C 115.832,156.149 119.165,161.482 124.5,165.5C 123.883,165.611 123.383,165.944 123,166.5C 122.333,165.167 121.333,164.167 120,163.5C 119.171,168.864 119.337,174.198 120.5,179.5C 123.137,176.816 123.803,177.15 122.5,180.5C 121.715,183.18 120.715,185.846 119.5,188.5C 118.662,188.842 118.328,189.508 118.5,190.5C 116.836,191.743 115.669,193.41 115,195.5C 114.329,196.252 113.496,196.586 112.5,196.5C 112.5,195.167 112.5,193.833 112.5,192.5C 112.5,191.833 112.5,191.167 112.5,190.5C 114.144,190.714 115.644,190.38 117,189.5C 117.832,179.483 117.666,169.483 116.5,159.5C 114.79,157.357 113.457,155.023 112.5,152.5C 110.962,145.656 111.295,138.989 113.5,132.5C 116.365,127.126 120.198,122.459 125,118.5C 125.667,113.167 125.667,107.833 125,102.5C 122.257,101.083 119.757,101.416 117.5,103.5C 117.33,102.178 117.663,101.011 118.5,100C 121.347,99.0561 123.847,99.5561 126,101.5C 127.29,105.73 127.79,110.064 127.5,114.5C 128.959,114.433 130.292,114.766 131.5,115.5 Z"/></g>
<g><path style="opacity:1" fill="#43f8cc" d="M 186.5,95.5 C 186.8,123.859 186.467,152.192 185.5,180.5C 184.5,180.5 183.5,180.5 182.5,180.5C 182.831,152.328 182.498,124.328 181.5,96.5C 181.34,94.8008 181.506,93.1341 182,91.5C 185.669,89.9907 187.169,91.3241 186.5,95.5 Z"/></g>
<g><path style="opacity:0.114" fill="#acd6e4" d="M 222.5,175.5 C 222.34,177.153 221.674,178.486 220.5,179.5C 220.229,177.62 220.896,176.287 222.5,175.5 Z"/></g>
<g><path style="opacity:1" fill="#274d66" d="M 156.5,160.5 C 157.281,165.418 157.781,170.418 158,175.5C 159.396,177.527 161.062,177.86 163,176.5C 163.173,182.016 163.673,187.349 164.5,192.5C 165.587,196.573 168.254,198.239 172.5,197.5C 174.062,197.267 175.395,196.6 176.5,195.5C 176.489,197.017 175.823,198.184 174.5,199C 171.5,199.667 168.5,199.667 165.5,199C 164.437,197.812 163.103,197.312 161.5,197.5C 160.167,196.167 160.167,194.833 161.5,193.5C 161.54,188.807 161.873,184.141 162.5,179.5C 159.794,179.575 157.127,179.908 154.5,180.5C 154.741,183.999 153.908,184.332 152,181.5C 150.667,183.167 149.333,184.833 148,186.5C 147.667,186.167 147.333,185.833 147,185.5C 146.125,188.215 144.292,189.548 141.5,189.5C 141.911,192.276 141.078,192.943 139,191.5C 136.38,192.206 133.88,193.206 131.5,194.5C 129.184,192.506 126.518,191.506 123.5,191.5C 123.649,190.448 123.483,189.448 123,188.5C 121.855,189.684 120.688,189.684 119.5,188.5C 120.715,185.846 121.715,183.18 122.5,180.5C 122.338,182.527 122.505,184.527 123,186.5C 129.642,193.365 135.976,193.031 142,185.5C 142.961,179.712 143.795,174.045 144.5,168.5C 149.298,167.036 153.298,164.369 156.5,160.5 Z"/></g>
<g><path style="opacity:1" fill="#2f526f" d="M 161.5,193.5 C 158.243,193.236 156.243,191.57 155.5,188.5C 153.856,188.714 152.356,188.38 151,187.5C 147.212,196.296 140.712,200.296 131.5,199.5C 126.912,197.51 122.245,196.844 117.5,197.5C 117.674,195.139 118.007,192.806 118.5,190.5C 118.328,189.508 118.662,188.842 119.5,188.5C 120.688,189.684 121.855,189.684 123,188.5C 123.483,189.448 123.649,190.448 123.5,191.5C 126.518,191.506 129.184,192.506 131.5,194.5C 133.88,193.206 136.38,192.206 139,191.5C 141.078,192.943 141.911,192.276 141.5,189.5C 144.292,189.548 146.125,188.215 147,185.5C 147.333,185.833 147.667,186.167 148,186.5C 149.333,184.833 150.667,183.167 152,181.5C 153.908,184.332 154.741,183.999 154.5,180.5C 157.127,179.908 159.794,179.575 162.5,179.5C 161.873,184.141 161.54,188.807 161.5,193.5 Z"/></g>
<g><path style="opacity:1" fill="#2eb1ad" d="M 112.5,152.5 C 113.457,155.023 114.79,157.357 116.5,159.5C 117.666,169.483 117.832,179.483 117,189.5C 115.644,190.38 114.144,190.714 112.5,190.5C 113.105,188.974 114.271,187.974 116,187.5C 116.831,180.144 116.665,172.811 115.5,165.5C 114.667,164.5 113.833,163.5 113,162.5C 112.502,159.183 112.335,155.85 112.5,152.5 Z"/></g>
<g><path style="opacity:0.059" fill="#a8d5ed" d="M 220.5,179.5 C 220.573,181.027 219.906,182.027 218.5,182.5C 218.427,180.973 219.094,179.973 220.5,179.5 Z"/></g>
<g><path style="opacity:1" fill="#43f3ce" d="M 61.5,167.5 C 64.7393,174.984 68.7393,181.984 73.5,188.5C 74.6298,190.315 75.2964,192.315 75.5,194.5C 72.7438,194.284 70.4105,193.284 68.5,191.5C 62.0636,185.054 57.7303,177.387 55.5,168.5C 52.7268,158.096 51.0601,147.429 50.5,136.5C 50.6307,131.318 51.6307,126.318 53.5,121.5C 54.3322,131.483 54.8322,141.483 55,151.5C 55.9486,156.338 57.282,161.005 59,165.5C 59.4169,166.756 60.2502,167.423 61.5,167.5 Z"/></g>
<g><path style="opacity:0.082" fill="#abd6e7" d="M 217.5,184.5 C 217.573,186.027 216.906,187.027 215.5,187.5C 215.427,185.973 216.094,184.973 217.5,184.5 Z"/></g>
<g><path style="opacity:0.004" fill="#d8e6f0" d="M 215.5,187.5 C 215.573,189.027 214.906,190.027 213.5,190.5C 213.427,188.973 214.094,187.973 215.5,187.5 Z"/></g>
<g><path style="opacity:1" fill="#41f6cb" d="M 208.5,181.5 C 211.325,180.522 212.658,178.522 212.5,175.5C 213.5,175.5 214.5,175.5 215.5,175.5C 215.984,179.685 214.317,182.685 210.5,184.5C 208.278,189.845 205.111,194.511 201,198.5C 199.115,197.687 198.449,196.353 199,194.5C 203.57,191.111 206.736,186.777 208.5,181.5 Z"/></g>
<g><path style="opacity:1" fill="#355a76" d="M 161.5,193.5 C 160.167,194.833 160.167,196.167 161.5,197.5C 159.775,197.843 159.275,198.843 160,200.5C 161.947,201.11 163.781,201.943 165.5,203C 164.529,204.481 163.196,205.315 161.5,205.5C 161.804,204.85 162.137,204.183 162.5,203.5C 156.776,199.207 150.442,197.874 143.5,199.5C 143.5,200.5 143.5,201.5 143.5,202.5C 138.125,202.828 132.792,202.495 127.5,201.5C 127.192,200.692 126.692,200.025 126,199.5C 122.863,200.161 120.03,201.495 117.5,203.5C 116.27,207.083 117.604,208.249 121.5,207C 122.126,206.25 122.626,205.416 123,204.5C 124.094,206.078 124.928,207.745 125.5,209.5C 119.339,208.802 113.339,207.468 107.5,205.5C 107.5,204.167 107.5,202.833 107.5,201.5C 108.978,201.762 110.311,201.429 111.5,200.5C 111.043,199.702 110.376,199.369 109.5,199.5C 109.81,197.856 110.81,196.856 112.5,196.5C 113.496,196.586 114.329,196.252 115,195.5C 115.669,193.41 116.836,191.743 118.5,190.5C 118.007,192.806 117.674,195.139 117.5,197.5C 122.245,196.844 126.912,197.51 131.5,199.5C 140.712,200.296 147.212,196.296 151,187.5C 152.356,188.38 153.856,188.714 155.5,188.5C 156.243,191.57 158.243,193.236 161.5,193.5 Z"/></g>
<g><path style="opacity:0.008" fill="#c5e1ec" d="M 212.5,191.5 C 212.573,193.027 211.906,194.027 210.5,194.5C 210.427,192.973 211.094,191.973 212.5,191.5 Z"/></g>
<g><path style="opacity:1" fill="#1b4e5d" d="M 203.5,186.5 C 198.117,194.217 191.45,200.551 183.5,205.5C 180.86,206.82 178.193,208.153 175.5,209.5C 177.672,207.055 180.338,205.055 183.5,203.5C 184.466,201.604 184.799,199.604 184.5,197.5C 185.978,197.762 187.311,197.429 188.5,196.5C 188.291,195.914 187.957,195.414 187.5,195C 190.146,194.503 192.813,194.336 195.5,194.5C 195.5,193.167 195.5,191.833 195.5,190.5C 197.073,187.107 199.74,185.774 203.5,186.5 Z"/></g>
<g><path style="opacity:1" fill="#30516e" d="M 181.5,185.5 C 186.606,186.265 191.272,187.932 195.5,190.5C 195.5,191.833 195.5,193.167 195.5,194.5C 192.813,194.336 190.146,194.503 187.5,195C 187.957,195.414 188.291,195.914 188.5,196.5C 187.311,197.429 185.978,197.762 184.5,197.5C 184.799,199.604 184.466,201.604 183.5,203.5C 180.338,205.055 177.672,207.055 175.5,209.5C 175.167,209.5 174.833,209.5 174.5,209.5C 169.673,208.839 165.339,209.839 161.5,212.5C 160.584,212.457 159.917,212.124 159.5,211.5C 160.756,211.539 161.756,211.039 162.5,210C 160.209,209.775 158.209,209.608 156.5,209.5C 157.919,208.549 159.585,208.216 161.5,208.5C 161.5,207.5 161.5,206.5 161.5,205.5C 163.196,205.315 164.529,204.481 165.5,203C 163.781,201.943 161.947,201.11 160,200.5C 159.275,198.843 159.775,197.843 161.5,197.5C 163.103,197.312 164.437,197.812 165.5,199C 168.5,199.667 171.5,199.667 174.5,199C 175.823,198.184 176.489,197.017 176.5,195.5C 177.497,195.53 178.164,195.03 178.5,194C 177.572,190.774 177.905,187.607 179.5,184.5C 180.183,184.863 180.85,185.196 181.5,185.5 Z"/></g>
<g><path style="opacity:1" fill="#385d7a" d="M 161.5,205.5 C 161.5,206.5 161.5,207.5 161.5,208.5C 159.585,208.216 157.919,208.549 156.5,209.5C 146.198,210.597 135.865,210.597 125.5,209.5C 124.928,207.745 124.094,206.078 123,204.5C 122.626,205.416 122.126,206.25 121.5,207C 117.604,208.249 116.27,207.083 117.5,203.5C 120.03,201.495 122.863,200.161 126,199.5C 126.692,200.025 127.192,200.692 127.5,201.5C 132.792,202.495 138.125,202.828 143.5,202.5C 143.5,201.5 143.5,200.5 143.5,199.5C 150.442,197.874 156.776,199.207 162.5,203.5C 162.137,204.183 161.804,204.85 161.5,205.5 Z"/></g>
<g><path style="opacity:1" fill="#42f7ca" d="M 192.5,206.5 C 192.5,207.167 192.167,207.5 191.5,207.5C 188.86,207.553 186.36,208.22 184,209.5C 183.167,209.167 182.333,208.833 181.5,208.5C 182.193,207.482 182.859,206.482 183.5,205.5C 185.308,205.509 186.975,205.009 188.5,204C 190.208,201.957 192.208,200.29 194.5,199C 195.635,198.251 196.635,198.417 197.5,199.5C 196.675,200.386 195.675,200.719 194.5,200.5C 194.386,202.718 193.72,204.718 192.5,206.5 Z"/></g>
<g><path style="opacity:1" fill="#165861" d="M 96.5,206.5 C 99.1085,206.4 101.442,207.067 103.5,208.5C 104.808,209.232 106.142,210.066 107.5,211C 114.646,211.855 121.646,213.188 128.5,215C 128.167,215.333 127.833,215.667 127.5,216C 137.91,216.846 148.244,216.346 158.5,214.5C 158.263,213.209 158.596,212.209 159.5,211.5C 159.917,212.124 160.584,212.457 161.5,212.5C 165.339,209.839 169.673,208.839 174.5,209.5C 167.114,213.029 159.447,215.696 151.5,217.5C 131.733,220.302 113.4,216.635 96.5,206.5 Z"/></g>
<g><path style="opacity:1" fill="#2e506f" d="M 109.5,199.5 C 110.376,199.369 111.043,199.702 111.5,200.5C 110.311,201.429 108.978,201.762 107.5,201.5C 107.5,202.833 107.5,204.167 107.5,205.5C 113.339,207.468 119.339,208.802 125.5,209.5C 135.865,210.597 146.198,210.597 156.5,209.5C 158.209,209.608 160.209,209.775 162.5,210C 161.756,211.039 160.756,211.539 159.5,211.5C 158.596,212.209 158.263,213.209 158.5,214.5C 148.244,216.346 137.91,216.846 127.5,216C 127.833,215.667 128.167,215.333 128.5,215C 121.646,213.188 114.646,211.855 107.5,211C 106.142,210.066 104.808,209.232 103.5,208.5C 103.373,206.085 103.207,203.751 103,201.5C 105.277,200.883 107.444,200.216 109.5,199.5 Z"/></g>
<g><path style="opacity:1" fill="#53eecf" d="M 183.5,205.5 C 182.859,206.482 182.193,207.482 181.5,208.5C 182.333,208.833 183.167,209.167 184,209.5C 186.36,208.22 188.86,207.553 191.5,207.5C 187.574,210.807 183.24,213.64 178.5,216C 171.154,218.837 163.821,221.337 156.5,223.5C 145.86,224.57 135.193,224.737 124.5,224C 119.853,223.462 115.52,222.295 111.5,220.5C 117.008,220.151 122.341,220.817 127.5,222.5C 136.839,222.666 146.173,222.5 155.5,222C 159.73,221.483 163.397,219.816 166.5,217C 161.522,217.051 156.522,217.218 151.5,217.5C 159.447,215.696 167.114,213.029 174.5,209.5C 174.833,209.5 175.167,209.5 175.5,209.5C 178.193,208.153 180.86,206.82 183.5,205.5 Z"/></g>
<g><path style="opacity:0.522" fill="#316875" d="M 227.5,151.5 C 227.263,152.791 227.596,153.791 228.5,154.5C 227.897,162 225.897,169 222.5,175.5C 220.896,176.287 220.229,177.62 220.5,179.5C 219.094,179.973 218.427,180.973 218.5,182.5C 218.672,183.492 218.338,184.158 217.5,184.5C 216.094,184.973 215.427,185.973 215.5,187.5C 214.094,187.973 213.427,188.973 213.5,190.5C 213.5,191.167 213.167,191.5 212.5,191.5C 211.094,191.973 210.427,192.973 210.5,194.5C 197.166,210.675 180.166,221.009 159.5,225.5C 159.611,224.883 159.944,224.383 160.5,224C 159.207,223.51 157.873,223.343 156.5,223.5C 163.821,221.337 171.154,218.837 178.5,216C 183.24,213.64 187.574,210.807 191.5,207.5C 192.167,207.5 192.5,207.167 192.5,206.5C 197.687,203.827 202.187,200.16 206,195.5C 217.097,182.622 224.264,167.955 227.5,151.5 Z"/></g>
<g><path style="opacity:1" fill="#4bf0cd" d="M 73.5,188.5 C 74.8333,189.5 76.1667,190.5 77.5,191.5C 82.9657,197.636 89.299,202.636 96.5,206.5C 113.4,216.635 131.733,220.302 151.5,217.5C 150.282,218.161 148.949,218.828 147.5,219.5C 140.45,219.857 133.783,220.857 127.5,222.5C 122.341,220.817 117.008,220.151 111.5,220.5C 95.2813,215.808 81.448,207.142 70,194.5C 69.4867,193.473 68.9867,192.473 68.5,191.5C 70.4105,193.284 72.7438,194.284 75.5,194.5C 75.2964,192.315 74.6298,190.315 73.5,188.5 Z"/></g>
<g><path style="opacity:1" fill="#44f7c9" d="M 127.5,222.5 C 133.783,220.857 140.45,219.857 147.5,219.5C 148.949,218.828 150.282,218.161 151.5,217.5C 156.522,217.218 161.522,217.051 166.5,217C 163.397,219.816 159.73,221.483 155.5,222C 146.173,222.5 136.839,222.666 127.5,222.5 Z"/></g>
<g><path style="opacity:0.6" fill="#2e6671" d="M 49.5,160.5 C 50.2216,160.918 50.7216,161.584 51,162.5C 51.3988,162.272 51.5654,161.938 51.5,161.5C 52.8333,163.833 54.1667,166.167 55.5,168.5C 57.7303,177.387 62.0636,185.054 68.5,191.5C 68.9867,192.473 69.4867,193.473 70,194.5C 81.448,207.142 95.2813,215.808 111.5,220.5C 115.52,222.295 119.853,223.462 124.5,224C 135.193,224.737 145.86,224.57 156.5,223.5C 157.873,223.343 159.207,223.51 160.5,224C 159.944,224.383 159.611,224.883 159.5,225.5C 120.899,232.692 89.0659,221.358 64,191.5C 57.012,182.19 52.1787,171.857 49.5,160.5 Z"/></g>
</svg>
