<?xml version="1.0" encoding="UTF-8"?>
<!DOCTYPE svg PUBLIC "-//W3C//DTD SVG 1.1//EN" "http://www.w3.org/Graphics/SVG/1.1/DTD/svg11.dtd">
<svg xmlns="http://www.w3.org/2000/svg" version="1.1" width="270px" height="270px" style="shape-rendering:geometricPrecision; text-rendering:geometricPrecision; image-rendering:optimizeQuality; fill-rule:evenodd; clip-rule:evenodd" xmlns:xlink="http://www.w3.org/1999/xlink">
<g><path style="opacity:1" fill="#0d3e50" d="M 242.5,107.5 C 240.399,113.443 240.399,119.61 242.5,126C 240.872,129.603 240.038,133.437 240,137.5C 236.168,136.164 234.668,133.497 235.5,129.5C 232.552,129.777 229.719,129.444 227,128.5C 222.467,130.036 217.8,131.036 213,131.5C 211.479,126.018 211.979,120.684 214.5,115.5C 213.726,114.289 212.893,114.289 212,115.5C 211.506,113.866 211.34,112.199 211.5,110.5C 212.822,110.33 213.989,110.663 215,111.5C 215.497,108.854 215.664,106.187 215.5,103.5C 207.5,103.5 199.5,103.5 191.5,103.5C 191.663,101.143 191.497,98.8098 191,96.5C 190.292,95.6195 189.458,94.9528 188.5,94.5C 186.235,87.201 181.568,85.0343 174.5,88C 173.117,89.2708 172.117,90.7708 171.5,92.5C 170.077,94.5449 168.077,95.5449 165.5,95.5C 165.784,93.5853 165.451,91.9187 164.5,90.5C 161.127,82.5762 156.294,81.5762 150,87.5C 149.667,94.1667 149.333,100.833 149,107.5C 147.124,106.391 145.291,105.391 143.5,104.5C 143.829,89.324 143.496,74.324 142.5,59.5C 139.616,52.5611 134.949,51.0611 128.5,55C 127.874,55.7504 127.374,56.5838 127,57.5C 126.833,75.1761 126.333,92.8428 125.5,110.5C 123.356,111.953 121.523,111.62 120,109.5C 119.667,99.8333 119.333,90.1667 119,80.5C 114.959,75.6875 110.625,75.3541 106,79.5C 104.536,93.0683 104.036,106.735 104.5,120.5C 103.521,117.375 103.187,114.042 103.5,110.5C 102.178,110.33 101.011,110.663 100,111.5C 100.131,104.754 99.2977,98.4212 97.5,92.5C 97.0679,91.2905 96.4013,90.2905 95.5,89.5C 89.5163,84.9631 84.5163,85.9631 80.5,92.5C 79.4586,92.9596 78.6253,94.2929 78,96.5C 76.178,96.0321 74.0113,95.6988 71.5,95.5C 71.5,90.1667 71.5,84.8333 71.5,79.5C 68.8333,79.5 66.1667,79.5 63.5,79.5C 63.5,76.1667 63.5,72.8333 63.5,69.5C 59.9601,69.6235 57.9601,67.9568 57.5,64.5C 56.5,64.5 55.5,64.5 54.5,64.5C 54.6643,61.1826 55.6643,58.1826 57.5,55.5C 91.5049,24.4219 130.505,16.2552 174.5,31C 204.185,42.6848 225.352,63.1848 238,92.5C 240.095,97.3467 241.595,102.347 242.5,107.5 Z"/></g>
<g><path style="opacity:1" fill="#34858b" d="M 142.5,59.5 C 143.496,74.324 143.829,89.324 143.5,104.5C 143.167,104.5 142.833,104.5 142.5,104.5C 141.833,104.5 141.5,104.167 141.5,103.5C 142.496,89.0095 142.829,74.3428 142.5,59.5 Z"/></g>
<g><path style="opacity:0.824" fill="#46636e" d="M 34.5,86.5 C 34.4142,87.4959 34.7476,88.3292 35.5,89C 33.5498,91.7894 32.0498,95.2894 31,99.5C 30.6667,99.1667 30.3333,98.8333 30,98.5C 29.6264,100.491 28.793,102.158 27.5,103.5C 29.0385,97.4337 31.3719,91.767 34.5,86.5 Z"/></g>
<g><path style="opacity:0.18" fill="#799398" d="M 27.5,104.5 C 27.5905,107.152 26.9238,109.485 25.5,111.5C 25.4095,108.848 26.0762,106.515 27.5,104.5 Z"/></g>
<g><path style="opacity:1" fill="#7ececb" d="M 95.5,89.5 C 94.1667,120.167 92.8333,150.833 91.5,181.5C 91.5,181.167 91.5,180.833 91.5,180.5C 92.4981,150.671 92.8314,120.671 92.5,90.5C 90.5328,90.2606 88.6995,90.5939 87,91.5C 86.5,121.165 86.3334,150.831 86.5,180.5C 85.7326,179.828 85.0659,178.995 84.5,178C 85.7606,164.727 85.7606,151.394 84.5,138C 84.1667,136.5 83.8333,135 83.5,133.5C 81.3432,134.966 81.0099,136.8 82.5,139C 81.2899,140.039 80.2899,141.206 79.5,142.5C 77.8333,142.5 76.1667,142.5 74.5,142.5C 74.6662,148.509 74.4995,154.509 74,160.5C 68.8332,166.092 64.1666,165.759 60,159.5C 59.5006,153.843 59.3339,148.176 59.5,142.5C 54.1563,142.666 48.8229,142.499 43.5,142C 42.944,141.617 42.6107,141.117 42.5,140.5C 49.8333,140.5 57.1667,140.5 64.5,140.5C 64.3337,147.175 64.5004,153.842 65,160.5C 66.6667,163.167 68.3333,163.167 70,160.5C 70.4996,153.842 70.6663,147.175 70.5,140.5C 72.5,140.5 74.5,140.5 76.5,140.5C 76.5,138.167 76.5,135.833 76.5,133.5C 77.8333,133.5 79.1667,133.5 80.5,133.5C 80.5,119.833 80.5,106.167 80.5,92.5C 84.5163,85.9631 89.5163,84.9631 95.5,89.5 Z"/></g>
<g><path style="opacity:1" fill="#0d3e50" d="M 57.5,55.5 C 55.6643,58.1826 54.6643,61.1826 54.5,64.5C 55.5,64.5 56.5,64.5 57.5,64.5C 57.9601,67.9568 59.9601,69.6235 63.5,69.5C 63.5,72.8333 63.5,76.1667 63.5,79.5C 66.1667,79.5 68.8333,79.5 71.5,79.5C 71.5,84.8333 71.5,90.1667 71.5,95.5C 74.0113,95.6988 76.178,96.0321 78,96.5C 78.6253,94.2929 79.4586,92.9596 80.5,92.5C 80.5,106.167 80.5,119.833 80.5,133.5C 79.1667,133.5 77.8333,133.5 76.5,133.5C 75.8333,133.5 75.1667,133.5 74.5,133.5C 74.6662,127.491 74.4995,121.491 74,115.5C 73.1502,111.898 70.8168,110.231 67,110.5C 63.5834,110.575 61.2501,112.241 60,115.5C 59.5005,121.491 59.3338,127.491 59.5,133.5C 53.8236,133.334 48.1569,133.501 42.5,134C 39.8661,136.293 39.8661,138.46 42.5,140.5C 42.6107,141.117 42.944,141.617 43.5,142C 48.8229,142.499 54.1563,142.666 59.5,142.5C 59.3339,148.176 59.5006,153.843 60,159.5C 64.1666,165.759 68.8332,166.092 74,160.5C 74.4995,154.509 74.6662,148.509 74.5,142.5C 76.1667,142.5 77.8333,142.5 79.5,142.5C 81.3179,154.794 82.1512,167.46 82,180.5C 87,187.167 92,187.167 97,180.5C 97.5,151.169 97.6666,121.835 97.5,92.5C 99.2977,98.4212 100.131,104.754 100,111.5C 101.011,110.663 102.178,110.33 103.5,110.5C 103.187,114.042 103.521,117.375 104.5,120.5C 104.804,121.15 105.137,121.817 105.5,122.5C 104.02,126.172 103.353,130.005 103.5,134C 104.222,151.492 104.722,168.992 105,186.5C 108.112,193.121 112.445,194.121 118,189.5C 119.28,180.267 119.947,170.934 120,161.5C 121.876,162.609 123.709,163.609 125.5,164.5C 125.667,178.837 125.5,193.171 125,207.5C 124.667,202.167 124.333,196.833 124,191.5C 123.794,197.884 123.294,204.217 122.5,210.5C 122.901,212.434 123.901,213.934 125.5,215C 124.448,216.716 125.114,217.716 127.5,218C 127.93,218.92 128.264,219.753 128.5,220.5C 131.727,220.345 135.06,220.178 138.5,220C 139.973,219.29 140.64,218.124 140.5,216.5C 141.801,215.118 142.634,213.452 143,211.5C 143.5,192.503 143.667,173.503 143.5,154.5C 145.467,154.261 147.301,154.594 149,155.5C 149.066,166.905 149.733,178.238 151,189.5C 154.953,193.473 158.787,193.473 162.5,189.5C 162.987,188.527 163.487,187.527 164,186.5C 164.299,169.326 164.799,152.16 165.5,135C 165.67,130.675 165.003,126.508 163.5,122.5C 164.477,111.885 164.81,101.219 164.5,90.5C 165.451,91.9187 165.784,93.5853 165.5,95.5C 168.077,95.5449 170.077,94.5449 171.5,92.5C 171.5,121.833 171.5,151.167 171.5,180.5C 170.79,183.86 172.124,185.693 175.5,186C 180.838,186.315 186.172,186.148 191.5,185.5C 191.085,183.253 190.418,181.086 189.5,179C 189.495,176.837 190.495,175.337 192.5,174.5C 190.513,170.261 191.68,167.261 196,165.5C 197.861,166.764 199.861,167.764 202,168.5C 205.86,167.455 209.693,165.621 213.5,163C 213.043,162.586 212.709,162.086 212.5,161.5C 213.914,160.376 215.414,159.376 217,158.5C 217.499,153.845 217.666,149.179 217.5,144.5C 220.85,144.665 224.183,144.498 227.5,144C 228.38,142.644 228.714,141.144 228.5,139.5C 228.822,137.278 228.155,135.444 226.5,134C 220.843,133.501 215.176,133.334 209.5,133.5C 209.666,128.156 209.499,122.823 209,117.5C 203.758,110.515 199.091,110.848 195,118.5C 194.501,123.489 194.334,128.489 194.5,133.5C 193.833,133.5 193.167,133.5 192.5,133.5C 191.167,133.5 189.833,133.5 188.5,133.5C 188.5,120.5 188.5,107.5 188.5,94.5C 189.458,94.9528 190.292,95.6195 191,96.5C 191.497,98.8098 191.663,101.143 191.5,103.5C 199.5,103.5 207.5,103.5 215.5,103.5C 215.664,106.187 215.497,108.854 215,111.5C 213.989,110.663 212.822,110.33 211.5,110.5C 211.34,112.199 211.506,113.866 212,115.5C 212.893,114.289 213.726,114.289 214.5,115.5C 211.979,120.684 211.479,126.018 213,131.5C 217.8,131.036 222.467,130.036 227,128.5C 229.719,129.444 232.552,129.777 235.5,129.5C 234.668,133.497 236.168,136.164 240,137.5C 240.038,133.437 240.872,129.603 242.5,126C 240.399,119.61 240.399,113.443 242.5,107.5C 252.999,154.17 239.999,193.003 203.5,224C 164.761,250.096 124.095,253.429 81.5,234C 43.6694,212.099 24.0027,179.099 22.5,135C 22.6646,127.011 23.6646,119.178 25.5,111.5C 26.9238,109.485 27.5905,107.152 27.5,104.5C 27.5,104.167 27.5,103.833 27.5,103.5C 28.793,102.158 29.6264,100.491 30,98.5C 30.3333,98.8333 30.6667,99.1667 31,99.5C 32.0498,95.2894 33.5498,91.7894 35.5,89C 34.7476,88.3292 34.4142,87.4959 34.5,86.5C 40.2464,74.752 47.913,64.4187 57.5,55.5 Z"/></g>
<g><path style="opacity:1" fill="#ebfcfd" d="M 91.5,180.5 C 91.5,180.833 91.5,181.167 91.5,181.5C 89.901,181.768 88.5676,181.434 87.5,180.5C 87.3334,151.165 87.5,121.831 88,92.5C 89.0113,91.6634 90.1779,91.33 91.5,91.5C 91.5,121.167 91.5,150.833 91.5,180.5 Z"/></g>
<g><path style="opacity:1" fill="#82cfce" d="M 209.5,133.5 C 207.833,133.5 206.167,133.5 204.5,133.5C 204.666,127.824 204.499,122.157 204,116.5C 202.667,115.167 201.333,115.167 200,116.5C 199.501,122.157 199.334,127.824 199.5,133.5C 197.833,133.5 196.167,133.5 194.5,133.5C 194.334,128.489 194.501,123.489 195,118.5C 199.091,110.848 203.758,110.515 209,117.5C 209.499,122.823 209.666,128.156 209.5,133.5 Z"/></g>
<g><path style="opacity:1" fill="#7bcbca" d="M 74.5,133.5 C 73.1667,133.5 71.8333,133.5 70.5,133.5C 70.6662,127.158 70.4995,120.825 70,114.5C 68.3005,113.594 66.4672,113.261 64.5,113.5C 64.5,120.167 64.5,126.833 64.5,133.5C 62.8333,133.5 61.1667,133.5 59.5,133.5C 59.3338,127.491 59.5005,121.491 60,115.5C 61.2501,112.241 63.5834,110.575 67,110.5C 70.8168,110.231 73.1502,111.898 74,115.5C 74.4995,121.491 74.6662,127.491 74.5,133.5 Z"/></g>
<g><path style="opacity:1" fill="#e9fbfc" d="M 209.5,133.5 C 215.176,133.334 220.843,133.501 226.5,134C 228.155,135.444 228.822,137.278 228.5,139.5C 227.5,140.167 226.5,140.833 225.5,141.5C 218.588,140.538 211.588,140.205 204.5,140.5C 204.666,147.508 204.5,154.508 204,161.5C 202.644,162.38 201.144,162.714 199.5,162.5C 199.5,155.167 199.5,147.833 199.5,140.5C 197.167,140.5 194.833,140.5 192.5,140.5C 192.5,138.167 192.5,135.833 192.5,133.5C 193.167,133.5 193.833,133.5 194.5,133.5C 196.167,133.5 197.833,133.5 199.5,133.5C 199.334,127.824 199.501,122.157 200,116.5C 201.333,115.167 202.667,115.167 204,116.5C 204.499,122.157 204.666,127.824 204.5,133.5C 206.167,133.5 207.833,133.5 209.5,133.5 Z"/></g>
<g><path style="opacity:1" fill="#e3fbfb" d="M 74.5,133.5 C 75.1667,133.5 75.8333,133.5 76.5,133.5C 76.5,135.833 76.5,138.167 76.5,140.5C 74.5,140.5 72.5,140.5 70.5,140.5C 70.6663,147.175 70.4996,153.842 70,160.5C 68.3333,163.167 66.6667,163.167 65,160.5C 64.5004,153.842 64.3337,147.175 64.5,140.5C 57.1667,140.5 49.8333,140.5 42.5,140.5C 39.8661,138.46 39.8661,136.293 42.5,134C 48.1569,133.501 53.8236,133.334 59.5,133.5C 61.1667,133.5 62.8333,133.5 64.5,133.5C 64.5,126.833 64.5,120.167 64.5,113.5C 66.4672,113.261 68.3005,113.594 70,114.5C 70.4995,120.825 70.6662,127.158 70.5,133.5C 71.8333,133.5 73.1667,133.5 74.5,133.5 Z"/></g>
<g><path style="opacity:1" fill="#cefefc" d="M 91.5,180.5 C 91.5,150.833 91.5,121.167 91.5,91.5C 90.1779,91.33 89.0113,91.6634 88,92.5C 87.5,121.831 87.3334,151.165 87.5,180.5C 87.1667,180.5 86.8333,180.5 86.5,180.5C 86.3334,150.831 86.5,121.165 87,91.5C 88.6995,90.5939 90.5328,90.2606 92.5,90.5C 92.8314,120.671 92.4981,150.671 91.5,180.5 Z"/></g>
<g><path style="opacity:1" fill="#71d7d0" d="M 164.5,90.5 C 164.81,101.219 164.477,111.885 163.5,122.5C 165.003,126.508 165.67,130.675 165.5,135C 164.799,152.16 164.299,169.326 164,186.5C 163.487,187.527 162.987,188.527 162.5,189.5C 161.778,189.082 161.278,188.416 161,187.5C 160.83,176.992 160.33,166.659 159.5,156.5C 159.672,155.508 159.338,154.842 158.5,154.5C 158.103,153.475 157.437,153.308 156.5,154C 155.333,155.167 154.167,156.333 153,157.5C 151.833,156.333 150.667,155.167 149.5,154C 150.167,153.333 150.833,152.667 151.5,152C 148.805,151.746 146.305,151.579 144,151.5C 142.832,148.107 143.666,145.441 146.5,143.5C 148.133,138.147 147.466,133.147 144.5,128.5C 142.604,127.534 140.604,127.201 138.5,127.5C 139.838,122.161 141.171,116.828 142.5,111.5C 142.5,109.167 142.5,106.833 142.5,104.5C 142.833,104.5 143.167,104.5 143.5,104.5C 145.291,105.391 147.124,106.391 149,107.5C 149.333,100.833 149.667,94.1667 150,87.5C 156.294,81.5762 161.127,82.5762 164.5,90.5 Z"/></g>
<g><path style="opacity:1" fill="#ddfcfb" d="M 154.5,86.5 C 156.144,86.2865 157.644,86.6198 159,87.5C 159.832,96.5185 159.665,105.518 158.5,114.5C 157.579,112.244 155.912,111.244 153.5,111.5C 153.198,103.082 153.531,94.7483 154.5,86.5 Z"/></g>
<g><path style="opacity:1" fill="#08414e" d="M 228.5,139.5 C 228.714,141.144 228.38,142.644 227.5,144C 224.183,144.498 220.85,144.665 217.5,144.5C 217.666,149.179 217.499,153.845 217,158.5C 215.414,159.376 213.914,160.376 212.5,161.5C 212.709,162.086 213.043,162.586 213.5,163C 209.693,165.621 205.86,167.455 202,168.5C 199.861,167.764 197.861,166.764 196,165.5C 191.68,167.261 190.513,170.261 192.5,174.5C 190.495,175.337 189.495,176.837 189.5,179C 190.418,181.086 191.085,183.253 191.5,185.5C 186.172,186.148 180.838,186.315 175.5,186C 172.124,185.693 170.79,183.86 171.5,180.5C 177.936,187.516 183.436,186.849 188,178.5C 188.5,166.505 188.667,154.505 188.5,142.5C 190.5,142.5 192.5,142.5 194.5,142.5C 194.334,148.176 194.501,153.843 195,159.5C 197.489,164.416 201.323,165.749 206.5,163.5C 207.584,162.335 208.417,161.002 209,159.5C 209.499,153.843 209.666,148.176 209.5,142.5C 215.026,142.821 220.36,142.488 225.5,141.5C 226.5,140.833 227.5,140.167 228.5,139.5 Z"/></g>
<g><path style="opacity:1" fill="#7fd3d0" d="M 188.5,94.5 C 188.5,107.5 188.5,120.5 188.5,133.5C 189.833,133.5 191.167,133.5 192.5,133.5C 192.5,135.833 192.5,138.167 192.5,140.5C 194.833,140.5 197.167,140.5 199.5,140.5C 199.5,147.833 199.5,155.167 199.5,162.5C 201.144,162.714 202.644,162.38 204,161.5C 204.5,154.508 204.666,147.508 204.5,140.5C 211.588,140.205 218.588,140.538 225.5,141.5C 220.36,142.488 215.026,142.821 209.5,142.5C 209.666,148.176 209.499,153.843 209,159.5C 208.417,161.002 207.584,162.335 206.5,163.5C 201.323,165.749 197.489,164.416 195,159.5C 194.501,153.843 194.334,148.176 194.5,142.5C 192.5,142.5 190.5,142.5 188.5,142.5C 188.667,154.505 188.5,166.505 188,178.5C 183.436,186.849 177.936,187.516 171.5,180.5C 171.5,151.167 171.5,121.833 171.5,92.5C 172.117,90.7708 173.117,89.2708 174.5,88C 181.568,85.0343 186.235,87.201 188.5,94.5 Z"/></g>
<g><path style="opacity:1" fill="#72d8d0" d="M 173.5,92.5 C 174.222,92.9175 174.722,93.5842 175,94.5C 175.833,122.839 175.667,151.173 174.5,179.5C 173.749,178.624 173.249,177.624 173,176.5C 172.176,148.428 172.343,120.428 173.5,92.5 Z"/></g>
<g><path style="opacity:1" fill="#d4fefc" d="M 176.5,90.5 C 178.5,90.5 180.5,90.5 182.5,90.5C 182.667,120.502 182.5,150.502 182,180.5C 180.333,181.833 178.667,181.833 177,180.5C 176.5,150.502 176.333,120.502 176.5,90.5 Z"/></g>
<g><path style="opacity:1" fill="#eefcfe" d="M 177.5,93.5 C 178.833,93.5 180.167,93.5 181.5,93.5C 181.991,122.314 181.491,150.981 180,179.5C 178.956,178.377 178.29,177.044 178,175.5C 177.5,148.169 177.333,120.835 177.5,93.5 Z"/></g>
<g><path style="opacity:1" fill="#0b4751" d="M 141.5,103.5 C 141.5,104.167 141.833,104.5 142.5,104.5C 142.5,106.833 142.5,109.167 142.5,111.5C 140.584,114.598 138.417,117.598 136,120.5C 133.988,126.075 135.821,128.909 141.5,129C 148.531,136.082 147.697,142.249 139,147.5C 138.812,149.476 138.979,151.476 139.5,153.5C 138.066,160.465 134.232,162.131 128,158.5C 126.703,154.825 127.703,152.158 131,150.5C 131.772,150.645 132.439,150.978 133,151.5C 133.743,153.441 133.576,155.274 132.5,157C 133.784,157.684 134.951,157.517 136,156.5C 136.667,153.833 136.667,151.167 136,148.5C 124.805,145.782 120.472,138.782 123,127.5C 125.197,123.762 127.864,120.429 131,117.5C 131.214,112.115 131.714,106.781 132.5,101.5C 134.527,99.661 136.86,99.161 139.5,100C 140.823,100.816 141.489,101.983 141.5,103.5 Z"/></g>
<g><path style="opacity:1" fill="#80d5d9" d="M 135.5,102.5 C 138.243,102.077 139.576,103.244 139.5,106C 138.92,109.328 137.42,112.161 135,114.5C 134.238,110.413 134.404,106.413 135.5,102.5 Z"/></g>
<g><path style="opacity:1" fill="#79d2d0" d="M 142.5,59.5 C 142.829,74.3428 142.496,89.0095 141.5,103.5C 141.489,101.983 140.823,100.816 139.5,100C 136.86,99.161 134.527,99.661 132.5,101.5C 131.714,106.781 131.214,112.115 131,117.5C 127.864,120.429 125.197,123.762 123,127.5C 120.472,138.782 124.805,145.782 136,148.5C 136.667,151.167 136.667,153.833 136,156.5C 134.951,157.517 133.784,157.684 132.5,157C 133.576,155.274 133.743,153.441 133,151.5C 132.439,150.978 131.772,150.645 131,150.5C 127.703,152.158 126.703,154.825 128,158.5C 134.232,162.131 138.066,160.465 139.5,153.5C 138.979,151.476 138.812,149.476 139,147.5C 147.697,142.249 148.531,136.082 141.5,129C 135.821,128.909 133.988,126.075 136,120.5C 138.417,117.598 140.584,114.598 142.5,111.5C 141.171,116.828 139.838,122.161 138.5,127.5C 140.604,127.201 142.604,127.534 144.5,128.5C 147.466,133.147 148.133,138.147 146.5,143.5C 143.666,145.441 142.832,148.107 144,151.5C 146.305,151.579 148.805,151.746 151.5,152C 150.833,152.667 150.167,153.333 149.5,154C 150.667,155.167 151.833,156.333 153,157.5C 154.167,156.333 155.333,155.167 156.5,154C 157.437,153.308 158.103,153.475 158.5,154.5C 156.496,155.673 154.996,157.34 154,159.5C 153.333,168.833 153.333,178.167 154,187.5C 155.396,189.527 157.062,189.86 159,188.5C 159.5,177.839 159.667,167.172 159.5,156.5C 160.33,166.659 160.83,176.992 161,187.5C 161.278,188.416 161.778,189.082 162.5,189.5C 158.787,193.473 154.953,193.473 151,189.5C 149.733,178.238 149.066,166.905 149,155.5C 147.301,154.594 145.467,154.261 143.5,154.5C 143.667,173.503 143.5,192.503 143,211.5C 142.634,213.452 141.801,215.118 140.5,216.5C 134.879,219.966 130.379,218.966 127,213.5C 126.5,197.503 126.333,181.503 126.5,165.5C 127.473,181.83 128.473,198.164 129.5,214.5C 130.183,214.137 130.85,213.804 131.5,213.5C 132.787,215.571 134.453,215.904 136.5,214.5C 137.499,199.848 137.833,185.182 137.5,170.5C 138.331,185.328 138.831,200.328 139,215.5C 139.915,214.672 140.581,213.672 141,212.5C 141.667,198.833 141.667,185.167 141,171.5C 137.874,168.453 137.041,164.953 138.5,161C 134.898,161.416 131.232,161.916 127.5,162.5C 126.705,158.215 126.372,153.881 126.5,149.5C 127.675,149.719 128.675,149.386 129.5,148.5C 126.625,146.592 123.792,144.592 121,142.5C 120.304,138.949 119.47,135.449 118.5,132C 118.049,129.121 119.215,127.288 122,126.5C 122.333,125.167 122.667,123.833 123,122.5C 125.667,121.167 127.667,119.167 129,116.5C 129.667,112.833 129.667,109.167 129,105.5C 127.098,109.262 125.765,113.262 125,117.5C 123.989,118.337 122.822,118.67 121.5,118.5C 122.112,115.119 120.946,112.786 118,111.5C 115.276,114.943 111.776,116.943 107.5,117.5C 107.366,123.175 107.033,128.842 106.5,134.5C 106.51,141.925 107.51,148.925 109.5,155.5C 109.333,166.172 109.5,176.839 110,187.5C 111.067,189.283 112.567,189.783 114.5,189C 115.423,186.959 115.756,184.792 115.5,182.5C 116.117,182.611 116.617,182.944 117,183.5C 117.188,175.782 117.854,168.115 119,160.5C 121.041,159.577 123.208,159.244 125.5,159.5C 125.297,161.39 125.963,162.89 127.5,164C 127.272,164.399 126.938,164.565 126.5,164.5C 126.167,164.5 125.833,164.5 125.5,164.5C 123.709,163.609 121.876,162.609 120,161.5C 119.947,170.934 119.28,180.267 118,189.5C 112.445,194.121 108.112,193.121 105,186.5C 104.722,168.992 104.222,151.492 103.5,134C 103.353,130.005 104.02,126.172 105.5,122.5C 105.137,121.817 104.804,121.15 104.5,120.5C 104.036,106.735 104.536,93.0683 106,79.5C 110.625,75.3541 114.959,75.6875 119,80.5C 119.333,90.1667 119.667,99.8333 120,109.5C 121.523,111.62 123.356,111.953 125.5,110.5C 126.333,92.8428 126.833,75.1761 127,57.5C 127.374,56.5838 127.874,55.7504 128.5,55C 134.949,51.0611 139.616,52.5611 142.5,59.5 Z"/></g>
<g><path style="opacity:1" fill="#79cbcd" d="M 132.5,122.5 C 134.369,126.248 133.536,129.248 130,131.5C 127.759,134.525 128.093,137.192 131,139.5C 131.113,137.026 132.113,135.026 134,133.5C 135.108,137.086 135.608,140.753 135.5,144.5C 127.859,142.901 125.026,138.234 127,130.5C 128.273,127.403 130.107,124.736 132.5,122.5 Z"/></g>
<g><path style="opacity:1" fill="#80d5d9" d="M 136.5,133.5 C 141.151,134.174 142.651,136.841 141,141.5C 140.311,142.357 139.478,143.023 138.5,143.5C 137.67,140.179 137.003,136.846 136.5,133.5 Z"/></g>
<g><path style="opacity:1" fill="#72dbd1" d="M 137.5,170.5 C 135.5,170.5 133.5,170.5 131.5,170.5C 131.5,184.833 131.5,199.167 131.5,213.5C 130.85,213.804 130.183,214.137 129.5,214.5C 128.473,198.164 127.473,181.83 126.5,165.5C 126.5,165.167 126.5,164.833 126.5,164.5C 126.938,164.565 127.272,164.399 127.5,164C 125.963,162.89 125.297,161.39 125.5,159.5C 123.208,159.244 121.041,159.577 119,160.5C 117.854,168.115 117.188,175.782 117,183.5C 116.617,182.944 116.117,182.611 115.5,182.5C 115.666,174.826 115.5,167.159 115,159.5C 113.315,157.983 111.815,156.316 110.5,154.5C 109.893,154.624 109.56,154.957 109.5,155.5C 107.51,148.925 106.51,141.925 106.5,134.5C 107.033,128.842 107.366,123.175 107.5,117.5C 111.776,116.943 115.276,114.943 118,111.5C 120.946,112.786 122.112,115.119 121.5,118.5C 122.822,118.67 123.989,118.337 125,117.5C 125.765,113.262 127.098,109.262 129,105.5C 129.667,109.167 129.667,112.833 129,116.5C 127.667,119.167 125.667,121.167 123,122.5C 122.667,123.833 122.333,125.167 122,126.5C 119.215,127.288 118.049,129.121 118.5,132C 119.47,135.449 120.304,138.949 121,142.5C 123.792,144.592 126.625,146.592 129.5,148.5C 128.675,149.386 127.675,149.719 126.5,149.5C 126.372,153.881 126.705,158.215 127.5,162.5C 131.232,161.916 134.898,161.416 138.5,161C 137.041,164.953 137.874,168.453 141,171.5C 141.667,185.167 141.667,198.833 141,212.5C 140.581,213.672 139.915,214.672 139,215.5C 138.831,200.328 138.331,185.328 137.5,170.5 Z"/></g>
<g><path style="opacity:1" fill="#e4fbfc" d="M 110.5,79.5 C 112.144,79.2865 113.644,79.6198 115,80.5C 115.667,90.5 115.667,100.5 115,110.5C 113.028,111.305 111.528,112.639 110.5,114.5C 109.19,102.772 109.19,91.105 110.5,79.5 Z"/></g>
<g><path style="opacity:1" fill="#e8fdfc" d="M 132.5,56.5 C 134.167,56.5 135.833,56.5 137.5,56.5C 137.5,69.5 137.5,82.5 137.5,95.5C 135.5,95.5 133.5,95.5 131.5,95.5C 131.186,82.4206 131.52,69.4206 132.5,56.5 Z"/></g>
<g><path style="opacity:1" fill="#dffcfc" d="M 158.5,154.5 C 159.338,154.842 159.672,155.508 159.5,156.5C 159.667,167.172 159.5,177.839 159,188.5C 157.062,189.86 155.396,189.527 154,187.5C 153.333,178.167 153.333,168.833 154,159.5C 154.996,157.34 156.496,155.673 158.5,154.5 Z"/></g>
<g><path style="opacity:1" fill="#e9fcfd" d="M 137.5,170.5 C 137.833,185.182 137.499,199.848 136.5,214.5C 134.453,215.904 132.787,215.571 131.5,213.5C 131.5,199.167 131.5,184.833 131.5,170.5C 133.5,170.5 135.5,170.5 137.5,170.5 Z"/></g>
<g><path style="opacity:1" fill="#7dddd7" d="M 95.5,89.5 C 96.4013,90.2905 97.0679,91.2905 97.5,92.5C 97.6666,121.835 97.5,151.169 97,180.5C 92,187.167 87,187.167 82,180.5C 82.1512,167.46 81.3179,154.794 79.5,142.5C 80.2899,141.206 81.2899,140.039 82.5,139C 81.0099,136.8 81.3432,134.966 83.5,133.5C 83.8333,135 84.1667,136.5 84.5,138C 85.7606,151.394 85.7606,164.727 84.5,178C 85.0659,178.995 85.7326,179.828 86.5,180.5C 86.8333,180.5 87.1667,180.5 87.5,180.5C 88.5676,181.434 89.901,181.768 91.5,181.5C 92.8333,150.833 94.1667,120.167 95.5,89.5 Z"/></g>
<g><path style="opacity:1" fill="#dcfcfb" d="M 115.5,182.5 C 115.756,184.792 115.423,186.959 114.5,189C 112.567,189.783 111.067,189.283 110,187.5C 109.5,176.839 109.333,166.172 109.5,155.5C 109.56,154.957 109.893,154.624 110.5,154.5C 111.815,156.316 113.315,157.983 115,159.5C 115.5,167.159 115.666,174.826 115.5,182.5 Z"/></g>
<g><path style="opacity:1" fill="#0c4b58" d="M 125.5,164.5 C 125.833,164.5 126.167,164.5 126.5,164.5C 126.5,164.833 126.5,165.167 126.5,165.5C 126.333,181.503 126.5,197.503 127,213.5C 130.379,218.966 134.879,219.966 140.5,216.5C 140.64,218.124 139.973,219.29 138.5,220C 135.06,220.178 131.727,220.345 128.5,220.5C 128.264,219.753 127.93,218.92 127.5,218C 125.114,217.716 124.448,216.716 125.5,215C 123.901,213.934 122.901,212.434 122.5,210.5C 123.294,204.217 123.794,197.884 124,191.5C 124.333,196.833 124.667,202.167 125,207.5C 125.5,193.171 125.667,178.837 125.5,164.5 Z"/></g>
</svg>
